<?xml version="1.0" encoding="utf-8" standalone="no"?>
<!DOCTYPE svg PUBLIC "-//W3C//DTD SVG 1.1//EN"
  "http://www.w3.org/Graphics/SVG/1.1/DTD/svg11.dtd">
<!-- Created with matplotlib (https://matplotlib.org/) -->
<svg height="432pt" version="1.1" viewBox="0 0 1728 432" width="1728pt" xmlns="http://www.w3.org/2000/svg" xmlns:xlink="http://www.w3.org/1999/xlink">
 <metadata>
  <rdf:RDF xmlns:cc="http://creativecommons.org/ns#" xmlns:dc="http://purl.org/dc/elements/1.1/" xmlns:rdf="http://www.w3.org/1999/02/22-rdf-syntax-ns#">
   <cc:Work>
    <dc:type rdf:resource="http://purl.org/dc/dcmitype/StillImage"/>
    <dc:date>2020-08-27T15:00:37.776786</dc:date>
    <dc:format>image/svg+xml</dc:format>
    <dc:creator>
     <cc:Agent>
      <dc:title>Matplotlib v3.3.1, https://matplotlib.org/</dc:title>
     </cc:Agent>
    </dc:creator>
   </cc:Work>
  </rdf:RDF>
 </metadata>
 <defs>
  <style type="text/css">*{stroke-linecap:butt;stroke-linejoin:round;}</style>
 </defs>
 <g id="figure_1">
  <g id="patch_1">
   <path d="M 0 432 
L 1728 432 
L 1728 0 
L 0 0 
z
" style="fill:#ffffff;"/>
  </g>
  <g id="axes_1">
   <g id="patch_2">
    <path d="M 216 203.04 
L 1555.2 203.04 
L 1555.2 51.84 
L 216 51.84 
z
" style="fill:#ffffff;"/>
   </g>
   <g id="matplotlib.axis_1">
    <g id="xtick_1">
     <g id="line2d_1">
      <path clip-path="url(#pd7ce544b18)" d="M 276.872727 203.04 
L 276.872727 51.84 
" style="fill:none;stroke:#b0b0b0;stroke-linecap:square;stroke-width:0.8;"/>
     </g>
     <g id="line2d_2">
      <defs>
       <path d="M 0 0 
L 0 3.5 
" id="me38d104854" style="stroke:#000000;stroke-width:0.8;"/>
      </defs>
      <g>
       <use style="stroke:#000000;stroke-width:0.8;" x="276.872727" xlink:href="#me38d104854" y="203.04"/>
      </g>
     </g>
     <g id="text_1">
      <!-- 0 -->
      <g transform="translate(273.691477 217.638437)scale(0.1 -0.1)">
       <defs>
        <path d="M 31.78125 66.40625 
Q 24.171875 66.40625 20.328125 58.90625 
Q 16.5 51.421875 16.5 36.375 
Q 16.5 21.390625 20.328125 13.890625 
Q 24.171875 6.390625 31.78125 6.390625 
Q 39.453125 6.390625 43.28125 13.890625 
Q 47.125 21.390625 47.125 36.375 
Q 47.125 51.421875 43.28125 58.90625 
Q 39.453125 66.40625 31.78125 66.40625 
z
M 31.78125 74.21875 
Q 44.046875 74.21875 50.515625 64.515625 
Q 56.984375 54.828125 56.984375 36.375 
Q 56.984375 17.96875 50.515625 8.265625 
Q 44.046875 -1.421875 31.78125 -1.421875 
Q 19.53125 -1.421875 13.0625 8.265625 
Q 6.59375 17.96875 6.59375 36.375 
Q 6.59375 54.828125 13.0625 64.515625 
Q 19.53125 74.21875 31.78125 74.21875 
z
" id="DejaVuSans-48"/>
       </defs>
       <use xlink:href="#DejaVuSans-48"/>
      </g>
     </g>
    </g>
    <g id="xtick_2">
     <g id="line2d_3">
      <path clip-path="url(#pd7ce544b18)" d="M 429.054545 203.04 
L 429.054545 51.84 
" style="fill:none;stroke:#b0b0b0;stroke-linecap:square;stroke-width:0.8;"/>
     </g>
     <g id="line2d_4">
      <g>
       <use style="stroke:#000000;stroke-width:0.8;" x="429.054545" xlink:href="#me38d104854" y="203.04"/>
      </g>
     </g>
     <g id="text_2">
      <!-- 25 -->
      <g transform="translate(422.692045 217.638437)scale(0.1 -0.1)">
       <defs>
        <path d="M 19.1875 8.296875 
L 53.609375 8.296875 
L 53.609375 0 
L 7.328125 0 
L 7.328125 8.296875 
Q 12.9375 14.109375 22.625 23.890625 
Q 32.328125 33.6875 34.8125 36.53125 
Q 39.546875 41.84375 41.421875 45.53125 
Q 43.3125 49.21875 43.3125 52.78125 
Q 43.3125 58.59375 39.234375 62.25 
Q 35.15625 65.921875 28.609375 65.921875 
Q 23.96875 65.921875 18.8125 64.3125 
Q 13.671875 62.703125 7.8125 59.421875 
L 7.8125 69.390625 
Q 13.765625 71.78125 18.9375 73 
Q 24.125 74.21875 28.421875 74.21875 
Q 39.75 74.21875 46.484375 68.546875 
Q 53.21875 62.890625 53.21875 53.421875 
Q 53.21875 48.921875 51.53125 44.890625 
Q 49.859375 40.875 45.40625 35.40625 
Q 44.1875 33.984375 37.640625 27.21875 
Q 31.109375 20.453125 19.1875 8.296875 
z
" id="DejaVuSans-50"/>
        <path d="M 10.796875 72.90625 
L 49.515625 72.90625 
L 49.515625 64.59375 
L 19.828125 64.59375 
L 19.828125 46.734375 
Q 21.96875 47.46875 24.109375 47.828125 
Q 26.265625 48.1875 28.421875 48.1875 
Q 40.625 48.1875 47.75 41.5 
Q 54.890625 34.8125 54.890625 23.390625 
Q 54.890625 11.625 47.5625 5.09375 
Q 40.234375 -1.421875 26.90625 -1.421875 
Q 22.3125 -1.421875 17.546875 -0.640625 
Q 12.796875 0.140625 7.71875 1.703125 
L 7.71875 11.625 
Q 12.109375 9.234375 16.796875 8.0625 
Q 21.484375 6.890625 26.703125 6.890625 
Q 35.15625 6.890625 40.078125 11.328125 
Q 45.015625 15.765625 45.015625 23.390625 
Q 45.015625 31 40.078125 35.4375 
Q 35.15625 39.890625 26.703125 39.890625 
Q 22.75 39.890625 18.8125 39.015625 
Q 14.890625 38.140625 10.796875 36.28125 
z
" id="DejaVuSans-53"/>
       </defs>
       <use xlink:href="#DejaVuSans-50"/>
       <use x="63.623047" xlink:href="#DejaVuSans-53"/>
      </g>
     </g>
    </g>
    <g id="xtick_3">
     <g id="line2d_5">
      <path clip-path="url(#pd7ce544b18)" d="M 581.236364 203.04 
L 581.236364 51.84 
" style="fill:none;stroke:#b0b0b0;stroke-linecap:square;stroke-width:0.8;"/>
     </g>
     <g id="line2d_6">
      <g>
       <use style="stroke:#000000;stroke-width:0.8;" x="581.236364" xlink:href="#me38d104854" y="203.04"/>
      </g>
     </g>
     <g id="text_3">
      <!-- 50 -->
      <g transform="translate(574.873864 217.638437)scale(0.1 -0.1)">
       <use xlink:href="#DejaVuSans-53"/>
       <use x="63.623047" xlink:href="#DejaVuSans-48"/>
      </g>
     </g>
    </g>
    <g id="xtick_4">
     <g id="line2d_7">
      <path clip-path="url(#pd7ce544b18)" d="M 733.418182 203.04 
L 733.418182 51.84 
" style="fill:none;stroke:#b0b0b0;stroke-linecap:square;stroke-width:0.8;"/>
     </g>
     <g id="line2d_8">
      <g>
       <use style="stroke:#000000;stroke-width:0.8;" x="733.418182" xlink:href="#me38d104854" y="203.04"/>
      </g>
     </g>
     <g id="text_4">
      <!-- 75 -->
      <g transform="translate(727.055682 217.638437)scale(0.1 -0.1)">
       <defs>
        <path d="M 8.203125 72.90625 
L 55.078125 72.90625 
L 55.078125 68.703125 
L 28.609375 0 
L 18.3125 0 
L 43.21875 64.59375 
L 8.203125 64.59375 
z
" id="DejaVuSans-55"/>
       </defs>
       <use xlink:href="#DejaVuSans-55"/>
       <use x="63.623047" xlink:href="#DejaVuSans-53"/>
      </g>
     </g>
    </g>
    <g id="xtick_5">
     <g id="line2d_9">
      <path clip-path="url(#pd7ce544b18)" d="M 885.6 203.04 
L 885.6 51.84 
" style="fill:none;stroke:#b0b0b0;stroke-linecap:square;stroke-width:0.8;"/>
     </g>
     <g id="line2d_10">
      <g>
       <use style="stroke:#000000;stroke-width:0.8;" x="885.6" xlink:href="#me38d104854" y="203.04"/>
      </g>
     </g>
     <g id="text_5">
      <!-- 100 -->
      <g transform="translate(876.05625 217.638437)scale(0.1 -0.1)">
       <defs>
        <path d="M 12.40625 8.296875 
L 28.515625 8.296875 
L 28.515625 63.921875 
L 10.984375 60.40625 
L 10.984375 69.390625 
L 28.421875 72.90625 
L 38.28125 72.90625 
L 38.28125 8.296875 
L 54.390625 8.296875 
L 54.390625 0 
L 12.40625 0 
z
" id="DejaVuSans-49"/>
       </defs>
       <use xlink:href="#DejaVuSans-49"/>
       <use x="63.623047" xlink:href="#DejaVuSans-48"/>
       <use x="127.246094" xlink:href="#DejaVuSans-48"/>
      </g>
     </g>
    </g>
    <g id="xtick_6">
     <g id="line2d_11">
      <path clip-path="url(#pd7ce544b18)" d="M 1037.781818 203.04 
L 1037.781818 51.84 
" style="fill:none;stroke:#b0b0b0;stroke-linecap:square;stroke-width:0.8;"/>
     </g>
     <g id="line2d_12">
      <g>
       <use style="stroke:#000000;stroke-width:0.8;" x="1037.781818" xlink:href="#me38d104854" y="203.04"/>
      </g>
     </g>
     <g id="text_6">
      <!-- 125 -->
      <g transform="translate(1028.238068 217.638437)scale(0.1 -0.1)">
       <use xlink:href="#DejaVuSans-49"/>
       <use x="63.623047" xlink:href="#DejaVuSans-50"/>
       <use x="127.246094" xlink:href="#DejaVuSans-53"/>
      </g>
     </g>
    </g>
    <g id="xtick_7">
     <g id="line2d_13">
      <path clip-path="url(#pd7ce544b18)" d="M 1189.963636 203.04 
L 1189.963636 51.84 
" style="fill:none;stroke:#b0b0b0;stroke-linecap:square;stroke-width:0.8;"/>
     </g>
     <g id="line2d_14">
      <g>
       <use style="stroke:#000000;stroke-width:0.8;" x="1189.963636" xlink:href="#me38d104854" y="203.04"/>
      </g>
     </g>
     <g id="text_7">
      <!-- 150 -->
      <g transform="translate(1180.419886 217.638437)scale(0.1 -0.1)">
       <use xlink:href="#DejaVuSans-49"/>
       <use x="63.623047" xlink:href="#DejaVuSans-53"/>
       <use x="127.246094" xlink:href="#DejaVuSans-48"/>
      </g>
     </g>
    </g>
    <g id="xtick_8">
     <g id="line2d_15">
      <path clip-path="url(#pd7ce544b18)" d="M 1342.145455 203.04 
L 1342.145455 51.84 
" style="fill:none;stroke:#b0b0b0;stroke-linecap:square;stroke-width:0.8;"/>
     </g>
     <g id="line2d_16">
      <g>
       <use style="stroke:#000000;stroke-width:0.8;" x="1342.145455" xlink:href="#me38d104854" y="203.04"/>
      </g>
     </g>
     <g id="text_8">
      <!-- 175 -->
      <g transform="translate(1332.601705 217.638437)scale(0.1 -0.1)">
       <use xlink:href="#DejaVuSans-49"/>
       <use x="63.623047" xlink:href="#DejaVuSans-55"/>
       <use x="127.246094" xlink:href="#DejaVuSans-53"/>
      </g>
     </g>
    </g>
    <g id="xtick_9">
     <g id="line2d_17">
      <path clip-path="url(#pd7ce544b18)" d="M 1494.327273 203.04 
L 1494.327273 51.84 
" style="fill:none;stroke:#b0b0b0;stroke-linecap:square;stroke-width:0.8;"/>
     </g>
     <g id="line2d_18">
      <g>
       <use style="stroke:#000000;stroke-width:0.8;" x="1494.327273" xlink:href="#me38d104854" y="203.04"/>
      </g>
     </g>
     <g id="text_9">
      <!-- 200 -->
      <g transform="translate(1484.783523 217.638437)scale(0.1 -0.1)">
       <use xlink:href="#DejaVuSans-50"/>
       <use x="63.623047" xlink:href="#DejaVuSans-48"/>
       <use x="127.246094" xlink:href="#DejaVuSans-48"/>
      </g>
     </g>
    </g>
    <g id="text_10">
     <!-- Episodes -->
     <g transform="translate(863.357813 231.316562)scale(0.1 -0.1)">
      <defs>
       <path d="M 9.8125 72.90625 
L 55.90625 72.90625 
L 55.90625 64.59375 
L 19.671875 64.59375 
L 19.671875 43.015625 
L 54.390625 43.015625 
L 54.390625 34.71875 
L 19.671875 34.71875 
L 19.671875 8.296875 
L 56.78125 8.296875 
L 56.78125 0 
L 9.8125 0 
z
" id="DejaVuSans-69"/>
       <path d="M 18.109375 8.203125 
L 18.109375 -20.796875 
L 9.078125 -20.796875 
L 9.078125 54.6875 
L 18.109375 54.6875 
L 18.109375 46.390625 
Q 20.953125 51.265625 25.265625 53.625 
Q 29.59375 56 35.59375 56 
Q 45.5625 56 51.78125 48.09375 
Q 58.015625 40.1875 58.015625 27.296875 
Q 58.015625 14.40625 51.78125 6.484375 
Q 45.5625 -1.421875 35.59375 -1.421875 
Q 29.59375 -1.421875 25.265625 0.953125 
Q 20.953125 3.328125 18.109375 8.203125 
z
M 48.6875 27.296875 
Q 48.6875 37.203125 44.609375 42.84375 
Q 40.53125 48.484375 33.40625 48.484375 
Q 26.265625 48.484375 22.1875 42.84375 
Q 18.109375 37.203125 18.109375 27.296875 
Q 18.109375 17.390625 22.1875 11.75 
Q 26.265625 6.109375 33.40625 6.109375 
Q 40.53125 6.109375 44.609375 11.75 
Q 48.6875 17.390625 48.6875 27.296875 
z
" id="DejaVuSans-112"/>
       <path d="M 9.421875 54.6875 
L 18.40625 54.6875 
L 18.40625 0 
L 9.421875 0 
z
M 9.421875 75.984375 
L 18.40625 75.984375 
L 18.40625 64.59375 
L 9.421875 64.59375 
z
" id="DejaVuSans-105"/>
       <path d="M 44.28125 53.078125 
L 44.28125 44.578125 
Q 40.484375 46.53125 36.375 47.5 
Q 32.28125 48.484375 27.875 48.484375 
Q 21.1875 48.484375 17.84375 46.4375 
Q 14.5 44.390625 14.5 40.28125 
Q 14.5 37.15625 16.890625 35.375 
Q 19.28125 33.59375 26.515625 31.984375 
L 29.59375 31.296875 
Q 39.15625 29.25 43.1875 25.515625 
Q 47.21875 21.78125 47.21875 15.09375 
Q 47.21875 7.46875 41.1875 3.015625 
Q 35.15625 -1.421875 24.609375 -1.421875 
Q 20.21875 -1.421875 15.453125 -0.5625 
Q 10.6875 0.296875 5.421875 2 
L 5.421875 11.28125 
Q 10.40625 8.6875 15.234375 7.390625 
Q 20.0625 6.109375 24.8125 6.109375 
Q 31.15625 6.109375 34.5625 8.28125 
Q 37.984375 10.453125 37.984375 14.40625 
Q 37.984375 18.0625 35.515625 20.015625 
Q 33.0625 21.96875 24.703125 23.78125 
L 21.578125 24.515625 
Q 13.234375 26.265625 9.515625 29.90625 
Q 5.8125 33.546875 5.8125 39.890625 
Q 5.8125 47.609375 11.28125 51.796875 
Q 16.75 56 26.8125 56 
Q 31.78125 56 36.171875 55.265625 
Q 40.578125 54.546875 44.28125 53.078125 
z
" id="DejaVuSans-115"/>
       <path d="M 30.609375 48.390625 
Q 23.390625 48.390625 19.1875 42.75 
Q 14.984375 37.109375 14.984375 27.296875 
Q 14.984375 17.484375 19.15625 11.84375 
Q 23.34375 6.203125 30.609375 6.203125 
Q 37.796875 6.203125 41.984375 11.859375 
Q 46.1875 17.53125 46.1875 27.296875 
Q 46.1875 37.015625 41.984375 42.703125 
Q 37.796875 48.390625 30.609375 48.390625 
z
M 30.609375 56 
Q 42.328125 56 49.015625 48.375 
Q 55.71875 40.765625 55.71875 27.296875 
Q 55.71875 13.875 49.015625 6.21875 
Q 42.328125 -1.421875 30.609375 -1.421875 
Q 18.84375 -1.421875 12.171875 6.21875 
Q 5.515625 13.875 5.515625 27.296875 
Q 5.515625 40.765625 12.171875 48.375 
Q 18.84375 56 30.609375 56 
z
" id="DejaVuSans-111"/>
       <path d="M 45.40625 46.390625 
L 45.40625 75.984375 
L 54.390625 75.984375 
L 54.390625 0 
L 45.40625 0 
L 45.40625 8.203125 
Q 42.578125 3.328125 38.25 0.953125 
Q 33.9375 -1.421875 27.875 -1.421875 
Q 17.96875 -1.421875 11.734375 6.484375 
Q 5.515625 14.40625 5.515625 27.296875 
Q 5.515625 40.1875 11.734375 48.09375 
Q 17.96875 56 27.875 56 
Q 33.9375 56 38.25 53.625 
Q 42.578125 51.265625 45.40625 46.390625 
z
M 14.796875 27.296875 
Q 14.796875 17.390625 18.875 11.75 
Q 22.953125 6.109375 30.078125 6.109375 
Q 37.203125 6.109375 41.296875 11.75 
Q 45.40625 17.390625 45.40625 27.296875 
Q 45.40625 37.203125 41.296875 42.84375 
Q 37.203125 48.484375 30.078125 48.484375 
Q 22.953125 48.484375 18.875 42.84375 
Q 14.796875 37.203125 14.796875 27.296875 
z
" id="DejaVuSans-100"/>
       <path d="M 56.203125 29.59375 
L 56.203125 25.203125 
L 14.890625 25.203125 
Q 15.484375 15.921875 20.484375 11.0625 
Q 25.484375 6.203125 34.421875 6.203125 
Q 39.59375 6.203125 44.453125 7.46875 
Q 49.3125 8.734375 54.109375 11.28125 
L 54.109375 2.78125 
Q 49.265625 0.734375 44.1875 -0.34375 
Q 39.109375 -1.421875 33.890625 -1.421875 
Q 20.796875 -1.421875 13.15625 6.1875 
Q 5.515625 13.8125 5.515625 26.8125 
Q 5.515625 40.234375 12.765625 48.109375 
Q 20.015625 56 32.328125 56 
Q 43.359375 56 49.78125 48.890625 
Q 56.203125 41.796875 56.203125 29.59375 
z
M 47.21875 32.234375 
Q 47.125 39.59375 43.09375 43.984375 
Q 39.0625 48.390625 32.421875 48.390625 
Q 24.90625 48.390625 20.390625 44.140625 
Q 15.875 39.890625 15.1875 32.171875 
z
" id="DejaVuSans-101"/>
      </defs>
      <use xlink:href="#DejaVuSans-69"/>
      <use x="63.183594" xlink:href="#DejaVuSans-112"/>
      <use x="126.660156" xlink:href="#DejaVuSans-105"/>
      <use x="154.443359" xlink:href="#DejaVuSans-115"/>
      <use x="206.542969" xlink:href="#DejaVuSans-111"/>
      <use x="267.724609" xlink:href="#DejaVuSans-100"/>
      <use x="331.201172" xlink:href="#DejaVuSans-101"/>
      <use x="392.724609" xlink:href="#DejaVuSans-115"/>
     </g>
    </g>
   </g>
   <g id="matplotlib.axis_2">
    <g id="ytick_1">
     <g id="line2d_19">
      <path clip-path="url(#pd7ce544b18)" d="M 216 196.167273 
L 1555.2 196.167273 
" style="fill:none;stroke:#b0b0b0;stroke-linecap:square;stroke-width:0.8;"/>
     </g>
     <g id="line2d_20">
      <defs>
       <path d="M 0 0 
L -3.5 0 
" id="m43a6a1fd47" style="stroke:#000000;stroke-width:0.8;"/>
      </defs>
      <g>
       <use style="stroke:#000000;stroke-width:0.8;" x="216" xlink:href="#m43a6a1fd47" y="196.167273"/>
      </g>
     </g>
     <g id="text_11">
      <!-- 0 -->
      <g transform="translate(202.6375 199.966491)scale(0.1 -0.1)">
       <use xlink:href="#DejaVuSans-48"/>
      </g>
     </g>
    </g>
    <g id="ytick_2">
     <g id="line2d_21">
      <path clip-path="url(#pd7ce544b18)" d="M 216 161.803636 
L 1555.2 161.803636 
" style="fill:none;stroke:#b0b0b0;stroke-linecap:square;stroke-width:0.8;"/>
     </g>
     <g id="line2d_22">
      <g>
       <use style="stroke:#000000;stroke-width:0.8;" x="216" xlink:href="#m43a6a1fd47" y="161.803636"/>
      </g>
     </g>
     <g id="text_12">
      <!-- 50 -->
      <g transform="translate(196.275 165.602855)scale(0.1 -0.1)">
       <use xlink:href="#DejaVuSans-53"/>
       <use x="63.623047" xlink:href="#DejaVuSans-48"/>
      </g>
     </g>
    </g>
    <g id="ytick_3">
     <g id="line2d_23">
      <path clip-path="url(#pd7ce544b18)" d="M 216 127.44 
L 1555.2 127.44 
" style="fill:none;stroke:#b0b0b0;stroke-linecap:square;stroke-width:0.8;"/>
     </g>
     <g id="line2d_24">
      <g>
       <use style="stroke:#000000;stroke-width:0.8;" x="216" xlink:href="#m43a6a1fd47" y="127.44"/>
      </g>
     </g>
     <g id="text_13">
      <!-- 100 -->
      <g transform="translate(189.9125 131.239219)scale(0.1 -0.1)">
       <use xlink:href="#DejaVuSans-49"/>
       <use x="63.623047" xlink:href="#DejaVuSans-48"/>
       <use x="127.246094" xlink:href="#DejaVuSans-48"/>
      </g>
     </g>
    </g>
    <g id="ytick_4">
     <g id="line2d_25">
      <path clip-path="url(#pd7ce544b18)" d="M 216 93.076364 
L 1555.2 93.076364 
" style="fill:none;stroke:#b0b0b0;stroke-linecap:square;stroke-width:0.8;"/>
     </g>
     <g id="line2d_26">
      <g>
       <use style="stroke:#000000;stroke-width:0.8;" x="216" xlink:href="#m43a6a1fd47" y="93.076364"/>
      </g>
     </g>
     <g id="text_14">
      <!-- 150 -->
      <g transform="translate(189.9125 96.875582)scale(0.1 -0.1)">
       <use xlink:href="#DejaVuSans-49"/>
       <use x="63.623047" xlink:href="#DejaVuSans-53"/>
       <use x="127.246094" xlink:href="#DejaVuSans-48"/>
      </g>
     </g>
    </g>
    <g id="ytick_5">
     <g id="line2d_27">
      <path clip-path="url(#pd7ce544b18)" d="M 216 58.712727 
L 1555.2 58.712727 
" style="fill:none;stroke:#b0b0b0;stroke-linecap:square;stroke-width:0.8;"/>
     </g>
     <g id="line2d_28">
      <g>
       <use style="stroke:#000000;stroke-width:0.8;" x="216" xlink:href="#m43a6a1fd47" y="58.712727"/>
      </g>
     </g>
     <g id="text_15">
      <!-- 200 -->
      <g transform="translate(189.9125 62.511946)scale(0.1 -0.1)">
       <use xlink:href="#DejaVuSans-50"/>
       <use x="63.623047" xlink:href="#DejaVuSans-48"/>
       <use x="127.246094" xlink:href="#DejaVuSans-48"/>
      </g>
     </g>
    </g>
    <g id="text_16">
     <!-- Reward / Episode -->
     <g transform="translate(183.832812 170.561094)rotate(-90)scale(0.1 -0.1)">
      <defs>
       <path d="M 44.390625 34.1875 
Q 47.5625 33.109375 50.5625 29.59375 
Q 53.5625 26.078125 56.59375 19.921875 
L 66.609375 0 
L 56 0 
L 46.6875 18.703125 
Q 43.0625 26.03125 39.671875 28.421875 
Q 36.28125 30.8125 30.421875 30.8125 
L 19.671875 30.8125 
L 19.671875 0 
L 9.8125 0 
L 9.8125 72.90625 
L 32.078125 72.90625 
Q 44.578125 72.90625 50.734375 67.671875 
Q 56.890625 62.453125 56.890625 51.90625 
Q 56.890625 45.015625 53.6875 40.46875 
Q 50.484375 35.9375 44.390625 34.1875 
z
M 19.671875 64.796875 
L 19.671875 38.921875 
L 32.078125 38.921875 
Q 39.203125 38.921875 42.84375 42.21875 
Q 46.484375 45.515625 46.484375 51.90625 
Q 46.484375 58.296875 42.84375 61.546875 
Q 39.203125 64.796875 32.078125 64.796875 
z
" id="DejaVuSans-82"/>
       <path d="M 4.203125 54.6875 
L 13.1875 54.6875 
L 24.421875 12.015625 
L 35.59375 54.6875 
L 46.1875 54.6875 
L 57.421875 12.015625 
L 68.609375 54.6875 
L 77.59375 54.6875 
L 63.28125 0 
L 52.6875 0 
L 40.921875 44.828125 
L 29.109375 0 
L 18.5 0 
z
" id="DejaVuSans-119"/>
       <path d="M 34.28125 27.484375 
Q 23.390625 27.484375 19.1875 25 
Q 14.984375 22.515625 14.984375 16.5 
Q 14.984375 11.71875 18.140625 8.90625 
Q 21.296875 6.109375 26.703125 6.109375 
Q 34.1875 6.109375 38.703125 11.40625 
Q 43.21875 16.703125 43.21875 25.484375 
L 43.21875 27.484375 
z
M 52.203125 31.203125 
L 52.203125 0 
L 43.21875 0 
L 43.21875 8.296875 
Q 40.140625 3.328125 35.546875 0.953125 
Q 30.953125 -1.421875 24.3125 -1.421875 
Q 15.921875 -1.421875 10.953125 3.296875 
Q 6 8.015625 6 15.921875 
Q 6 25.140625 12.171875 29.828125 
Q 18.359375 34.515625 30.609375 34.515625 
L 43.21875 34.515625 
L 43.21875 35.40625 
Q 43.21875 41.609375 39.140625 45 
Q 35.0625 48.390625 27.6875 48.390625 
Q 23 48.390625 18.546875 47.265625 
Q 14.109375 46.140625 10.015625 43.890625 
L 10.015625 52.203125 
Q 14.9375 54.109375 19.578125 55.046875 
Q 24.21875 56 28.609375 56 
Q 40.484375 56 46.34375 49.84375 
Q 52.203125 43.703125 52.203125 31.203125 
z
" id="DejaVuSans-97"/>
       <path d="M 41.109375 46.296875 
Q 39.59375 47.171875 37.8125 47.578125 
Q 36.03125 48 33.890625 48 
Q 26.265625 48 22.1875 43.046875 
Q 18.109375 38.09375 18.109375 28.8125 
L 18.109375 0 
L 9.078125 0 
L 9.078125 54.6875 
L 18.109375 54.6875 
L 18.109375 46.1875 
Q 20.953125 51.171875 25.484375 53.578125 
Q 30.03125 56 36.53125 56 
Q 37.453125 56 38.578125 55.875 
Q 39.703125 55.765625 41.0625 55.515625 
z
" id="DejaVuSans-114"/>
       <path id="DejaVuSans-32"/>
       <path d="M 25.390625 72.90625 
L 33.6875 72.90625 
L 8.296875 -9.28125 
L 0 -9.28125 
z
" id="DejaVuSans-47"/>
      </defs>
      <use xlink:href="#DejaVuSans-82"/>
      <use x="64.982422" xlink:href="#DejaVuSans-101"/>
      <use x="126.505859" xlink:href="#DejaVuSans-119"/>
      <use x="208.292969" xlink:href="#DejaVuSans-97"/>
      <use x="269.572266" xlink:href="#DejaVuSans-114"/>
      <use x="308.935547" xlink:href="#DejaVuSans-100"/>
      <use x="372.412109" xlink:href="#DejaVuSans-32"/>
      <use x="404.199219" xlink:href="#DejaVuSans-47"/>
      <use x="437.890625" xlink:href="#DejaVuSans-32"/>
      <use x="469.677734" xlink:href="#DejaVuSans-69"/>
      <use x="532.861328" xlink:href="#DejaVuSans-112"/>
      <use x="596.337891" xlink:href="#DejaVuSans-105"/>
      <use x="624.121094" xlink:href="#DejaVuSans-115"/>
      <use x="676.220703" xlink:href="#DejaVuSans-111"/>
      <use x="737.402344" xlink:href="#DejaVuSans-100"/>
      <use x="800.878906" xlink:href="#DejaVuSans-101"/>
     </g>
    </g>
   </g>
   <g id="line2d_29">
    <path clip-path="url(#pd7ce544b18)" d="M 276.872727 179.672727 
L 282.96 165.927273 
L 289.047273 180.36 
L 295.134545 181.734545 
L 301.221818 179.672727 
L 307.309091 187.232727 
L 313.396364 178.298182 
L 319.483636 174.861818 
L 325.570909 167.301818 
L 331.658182 146.683636 
L 337.745455 170.738182 
L 343.832727 167.989091 
L 349.92 181.047273 
L 356.007273 178.985455 
L 362.094545 172.8 
L 368.181818 175.549091 
L 374.269091 176.236364 
L 380.356364 181.734545 
L 386.443636 185.858182 
L 392.530909 174.174545 
L 398.618182 177.610909 
L 404.705455 164.552727 
L 410.792727 165.927273 
L 422.967273 179.672727 
L 429.054545 177.610909 
L 435.141818 165.24 
L 441.229091 173.487273 
L 447.316364 159.054545 
L 453.403636 161.803636 
L 459.490909 159.054545 
L 465.578182 157.68 
L 471.665455 161.803636 
L 477.752727 187.92 
L 483.84 174.174545 
L 489.927273 174.174545 
L 496.014545 159.054545 
L 502.101818 153.556364 
L 508.189091 167.989091 
L 514.276364 180.36 
L 520.363636 141.185455 
L 526.450909 172.8 
L 532.538182 178.298182 
L 538.625455 181.047273 
L 544.712727 177.610909 
L 550.8 171.425455 
L 556.887273 161.116364 
L 562.974545 184.483636 
L 575.149091 170.738182 
L 581.236364 188.607273 
L 587.323636 185.858182 
L 593.410909 156.992727 
L 599.498182 183.796364 
L 605.585455 187.232727 
L 611.672727 181.047273 
L 617.76 181.734545 
L 623.847273 168.676364 
L 629.934545 152.181818 
L 636.021818 168.676364 
L 642.109091 175.549091 
L 648.196364 151.494545 
L 654.283636 141.185455 
L 660.370909 128.127273 
L 666.458182 150.12 
L 672.545455 164.552727 
L 678.632727 96.512727 
L 684.72 156.305455 
L 690.807273 112.32 
L 696.894545 150.12 
L 702.981818 166.614545 
L 709.069091 160.429091 
L 715.156364 135.687273 
L 721.243636 183.109091 
L 727.330909 69.709091 
L 733.418182 183.109091 
L 739.505455 145.996364 
L 745.592727 151.494545 
L 751.68 58.712727 
L 757.767273 178.298182 
L 763.854545 96.512727 
L 769.941818 126.065455 
L 776.029091 123.316364 
L 782.116364 155.618182 
L 788.203636 104.76 
L 794.290909 58.712727 
L 800.378182 101.323636 
L 806.465455 114.381818 
L 812.552727 62.149091 
L 818.64 66.272727 
L 824.727273 185.170909 
L 830.814545 131.563636 
L 836.901818 58.712727 
L 842.989091 119.192727 
L 849.076364 58.712727 
L 855.163636 58.712727 
L 861.250909 120.567273 
L 867.338182 113.007273 
L 873.425455 58.712727 
L 879.512727 82.08 
L 885.6 111.632727 
L 891.687273 125.378182 
L 897.774545 58.712727 
L 903.861818 58.712727 
L 909.949091 154.243636 
L 916.036364 84.829091 
L 922.123636 70.396364 
L 928.210909 66.272727 
L 934.298182 182.421818 
L 940.385455 121.254545 
L 946.472727 106.821818 
L 952.56 130.189091 
L 958.647273 58.712727 
L 964.734545 118.505455 
L 970.821818 58.712727 
L 1019.52 58.712727 
L 1025.607273 84.829091 
L 1031.694545 58.712727 
L 1037.781818 101.323636 
L 1043.869091 58.712727 
L 1049.956364 123.316364 
L 1056.043636 58.712727 
L 1062.130909 104.072727 
L 1068.218182 58.712727 
L 1074.305455 108.883636 
L 1080.392727 88.265455 
L 1086.48 77.956364 
L 1092.567273 58.712727 
L 1098.654545 65.585455 
L 1104.741818 104.072727 
L 1110.829091 120.567273 
L 1116.916364 58.712727 
L 1129.090909 58.712727 
L 1135.178182 126.752727 
L 1141.265455 105.447273 
L 1147.352727 90.327273 
L 1153.44 62.149091 
L 1159.527273 60.087273 
L 1165.614545 58.712727 
L 1171.701818 66.96 
L 1177.789091 121.254545 
L 1183.876364 99.261818 
L 1189.963636 69.709091 
L 1196.050909 77.269091 
L 1202.138182 58.712727 
L 1208.225455 98.574545 
L 1214.312727 87.578182 
L 1220.4 92.389091 
L 1226.487273 58.712727 
L 1232.574545 58.712727 
L 1238.661818 97.887273 
L 1244.749091 66.272727 
L 1250.836364 92.389091 
L 1256.923636 58.712727 
L 1281.272727 58.712727 
L 1287.36 81.392727 
L 1293.447273 58.712727 
L 1305.621818 58.712727 
L 1311.709091 113.007273 
L 1317.796364 80.018182 
L 1323.883636 58.712727 
L 1329.970909 58.712727 
L 1336.058182 108.883636 
L 1342.145455 114.381818 
L 1348.232727 79.330909 
L 1354.32 58.712727 
L 1360.407273 100.636364 
L 1366.494545 58.712727 
L 1409.105455 58.712727 
L 1415.192727 78.643636 
L 1421.28 58.712727 
L 1427.367273 58.712727 
L 1433.454545 138.436364 
L 1439.541818 58.712727 
L 1445.629091 58.712727 
L 1451.716364 123.316364 
L 1457.803636 58.712727 
L 1463.890909 156.992727 
L 1469.978182 58.712727 
L 1488.24 58.712727 
L 1488.24 58.712727 
" style="fill:none;stroke:#0000ff;stroke-linecap:square;stroke-width:1.5;"/>
   </g>
   <g id="line2d_30">
    <path clip-path="url(#pd7ce544b18)" d="M 276.872727 196.167273 
L 398.618182 175.549091 
L 520.363636 168.676364 
L 642.109091 173.487273 
L 763.854545 143.247273 
L 885.6 99.949091 
L 1007.345455 90.327273 
L 1129.090909 77.956364 
L 1250.836364 80.705455 
L 1372.581818 73.832727 
L 1494.327273 71.770909 
" style="fill:none;stroke:#ff0000;stroke-linecap:square;stroke-width:1.5;"/>
   </g>
   <g id="patch_3">
    <path d="M 216 203.04 
L 216 51.84 
" style="fill:none;stroke:#000000;stroke-linecap:square;stroke-linejoin:miter;stroke-width:0.8;"/>
   </g>
   <g id="patch_4">
    <path d="M 1555.2 203.04 
L 1555.2 51.84 
" style="fill:none;stroke:#000000;stroke-linecap:square;stroke-linejoin:miter;stroke-width:0.8;"/>
   </g>
   <g id="patch_5">
    <path d="M 216 203.04 
L 1555.2 203.04 
" style="fill:none;stroke:#000000;stroke-linecap:square;stroke-linejoin:miter;stroke-width:0.8;"/>
   </g>
   <g id="patch_6">
    <path d="M 216 51.84 
L 1555.2 51.84 
" style="fill:none;stroke:#000000;stroke-linecap:square;stroke-linejoin:miter;stroke-width:0.8;"/>
   </g>
  </g>
  <g id="axes_2">
   <g id="patch_7">
    <path d="M 216 384.48 
L 1555.2 384.48 
L 1555.2 233.28 
L 216 233.28 
z
" style="fill:#ffffff;"/>
   </g>
   <g id="matplotlib.axis_3">
    <g id="xtick_10">
     <g id="line2d_31">
      <path clip-path="url(#pc7be6f20e3)" d="M 276.872727 384.48 
L 276.872727 233.28 
" style="fill:none;stroke:#b0b0b0;stroke-linecap:square;stroke-width:0.8;"/>
     </g>
     <g id="line2d_32">
      <g>
       <use style="stroke:#000000;stroke-width:0.8;" x="276.872727" xlink:href="#me38d104854" y="384.48"/>
      </g>
     </g>
     <g id="text_17">
      <!-- 0 -->
      <g transform="translate(273.691477 399.078438)scale(0.1 -0.1)">
       <use xlink:href="#DejaVuSans-48"/>
      </g>
     </g>
    </g>
    <g id="xtick_11">
     <g id="line2d_33">
      <path clip-path="url(#pc7be6f20e3)" d="M 429.819278 384.48 
L 429.819278 233.28 
" style="fill:none;stroke:#b0b0b0;stroke-linecap:square;stroke-width:0.8;"/>
     </g>
     <g id="line2d_34">
      <g>
       <use style="stroke:#000000;stroke-width:0.8;" x="429.819278" xlink:href="#me38d104854" y="384.48"/>
      </g>
     </g>
     <g id="text_18">
      <!-- 25 -->
      <g transform="translate(423.456778 399.078438)scale(0.1 -0.1)">
       <use xlink:href="#DejaVuSans-50"/>
       <use x="63.623047" xlink:href="#DejaVuSans-53"/>
      </g>
     </g>
    </g>
    <g id="xtick_12">
     <g id="line2d_35">
      <path clip-path="url(#pc7be6f20e3)" d="M 582.765829 384.48 
L 582.765829 233.28 
" style="fill:none;stroke:#b0b0b0;stroke-linecap:square;stroke-width:0.8;"/>
     </g>
     <g id="line2d_36">
      <g>
       <use style="stroke:#000000;stroke-width:0.8;" x="582.765829" xlink:href="#me38d104854" y="384.48"/>
      </g>
     </g>
     <g id="text_19">
      <!-- 50 -->
      <g transform="translate(576.403329 399.078438)scale(0.1 -0.1)">
       <use xlink:href="#DejaVuSans-53"/>
       <use x="63.623047" xlink:href="#DejaVuSans-48"/>
      </g>
     </g>
    </g>
    <g id="xtick_13">
     <g id="line2d_37">
      <path clip-path="url(#pc7be6f20e3)" d="M 735.71238 384.48 
L 735.71238 233.28 
" style="fill:none;stroke:#b0b0b0;stroke-linecap:square;stroke-width:0.8;"/>
     </g>
     <g id="line2d_38">
      <g>
       <use style="stroke:#000000;stroke-width:0.8;" x="735.71238" xlink:href="#me38d104854" y="384.48"/>
      </g>
     </g>
     <g id="text_20">
      <!-- 75 -->
      <g transform="translate(729.34988 399.078438)scale(0.1 -0.1)">
       <use xlink:href="#DejaVuSans-55"/>
       <use x="63.623047" xlink:href="#DejaVuSans-53"/>
      </g>
     </g>
    </g>
    <g id="xtick_14">
     <g id="line2d_39">
      <path clip-path="url(#pc7be6f20e3)" d="M 888.658931 384.48 
L 888.658931 233.28 
" style="fill:none;stroke:#b0b0b0;stroke-linecap:square;stroke-width:0.8;"/>
     </g>
     <g id="line2d_40">
      <g>
       <use style="stroke:#000000;stroke-width:0.8;" x="888.658931" xlink:href="#me38d104854" y="384.48"/>
      </g>
     </g>
     <g id="text_21">
      <!-- 100 -->
      <g transform="translate(879.115181 399.078438)scale(0.1 -0.1)">
       <use xlink:href="#DejaVuSans-49"/>
       <use x="63.623047" xlink:href="#DejaVuSans-48"/>
       <use x="127.246094" xlink:href="#DejaVuSans-48"/>
      </g>
     </g>
    </g>
    <g id="xtick_15">
     <g id="line2d_41">
      <path clip-path="url(#pc7be6f20e3)" d="M 1041.605482 384.48 
L 1041.605482 233.28 
" style="fill:none;stroke:#b0b0b0;stroke-linecap:square;stroke-width:0.8;"/>
     </g>
     <g id="line2d_42">
      <g>
       <use style="stroke:#000000;stroke-width:0.8;" x="1041.605482" xlink:href="#me38d104854" y="384.48"/>
      </g>
     </g>
     <g id="text_22">
      <!-- 125 -->
      <g transform="translate(1032.061732 399.078438)scale(0.1 -0.1)">
       <use xlink:href="#DejaVuSans-49"/>
       <use x="63.623047" xlink:href="#DejaVuSans-50"/>
       <use x="127.246094" xlink:href="#DejaVuSans-53"/>
      </g>
     </g>
    </g>
    <g id="xtick_16">
     <g id="line2d_43">
      <path clip-path="url(#pc7be6f20e3)" d="M 1194.552033 384.48 
L 1194.552033 233.28 
" style="fill:none;stroke:#b0b0b0;stroke-linecap:square;stroke-width:0.8;"/>
     </g>
     <g id="line2d_44">
      <g>
       <use style="stroke:#000000;stroke-width:0.8;" x="1194.552033" xlink:href="#me38d104854" y="384.48"/>
      </g>
     </g>
     <g id="text_23">
      <!-- 150 -->
      <g transform="translate(1185.008283 399.078438)scale(0.1 -0.1)">
       <use xlink:href="#DejaVuSans-49"/>
       <use x="63.623047" xlink:href="#DejaVuSans-53"/>
       <use x="127.246094" xlink:href="#DejaVuSans-48"/>
      </g>
     </g>
    </g>
    <g id="xtick_17">
     <g id="line2d_45">
      <path clip-path="url(#pc7be6f20e3)" d="M 1347.498584 384.48 
L 1347.498584 233.28 
" style="fill:none;stroke:#b0b0b0;stroke-linecap:square;stroke-width:0.8;"/>
     </g>
     <g id="line2d_46">
      <g>
       <use style="stroke:#000000;stroke-width:0.8;" x="1347.498584" xlink:href="#me38d104854" y="384.48"/>
      </g>
     </g>
     <g id="text_24">
      <!-- 175 -->
      <g transform="translate(1337.954834 399.078438)scale(0.1 -0.1)">
       <use xlink:href="#DejaVuSans-49"/>
       <use x="63.623047" xlink:href="#DejaVuSans-55"/>
       <use x="127.246094" xlink:href="#DejaVuSans-53"/>
      </g>
     </g>
    </g>
    <g id="xtick_18">
     <g id="line2d_47">
      <path clip-path="url(#pc7be6f20e3)" d="M 1500.445135 384.48 
L 1500.445135 233.28 
" style="fill:none;stroke:#b0b0b0;stroke-linecap:square;stroke-width:0.8;"/>
     </g>
     <g id="line2d_48">
      <g>
       <use style="stroke:#000000;stroke-width:0.8;" x="1500.445135" xlink:href="#me38d104854" y="384.48"/>
      </g>
     </g>
     <g id="text_25">
      <!-- 200 -->
      <g transform="translate(1490.901385 399.078438)scale(0.1 -0.1)">
       <use xlink:href="#DejaVuSans-50"/>
       <use x="63.623047" xlink:href="#DejaVuSans-48"/>
       <use x="127.246094" xlink:href="#DejaVuSans-48"/>
      </g>
     </g>
    </g>
    <g id="text_26">
     <!-- Episodes -->
     <g transform="translate(863.357813 412.756563)scale(0.1 -0.1)">
      <use xlink:href="#DejaVuSans-69"/>
      <use x="63.183594" xlink:href="#DejaVuSans-112"/>
      <use x="126.660156" xlink:href="#DejaVuSans-105"/>
      <use x="154.443359" xlink:href="#DejaVuSans-115"/>
      <use x="206.542969" xlink:href="#DejaVuSans-111"/>
      <use x="267.724609" xlink:href="#DejaVuSans-100"/>
      <use x="331.201172" xlink:href="#DejaVuSans-101"/>
      <use x="392.724609" xlink:href="#DejaVuSans-115"/>
     </g>
    </g>
   </g>
   <g id="matplotlib.axis_4">
    <g id="ytick_6">
     <g id="line2d_49">
      <path clip-path="url(#pc7be6f20e3)" d="M 216 375.260748 
L 1555.2 375.260748 
" style="fill:none;stroke:#b0b0b0;stroke-linecap:square;stroke-width:0.8;"/>
     </g>
     <g id="line2d_50">
      <g>
       <use style="stroke:#000000;stroke-width:0.8;" x="216" xlink:href="#m43a6a1fd47" y="375.260748"/>
      </g>
     </g>
     <g id="text_27">
      <!-- 0 -->
      <g transform="translate(202.6375 379.059966)scale(0.1 -0.1)">
       <use xlink:href="#DejaVuSans-48"/>
      </g>
     </g>
    </g>
    <g id="ytick_7">
     <g id="line2d_51">
      <path clip-path="url(#pc7be6f20e3)" d="M 216 350.621085 
L 1555.2 350.621085 
" style="fill:none;stroke:#b0b0b0;stroke-linecap:square;stroke-width:0.8;"/>
     </g>
     <g id="line2d_52">
      <g>
       <use style="stroke:#000000;stroke-width:0.8;" x="216" xlink:href="#m43a6a1fd47" y="350.621085"/>
      </g>
     </g>
     <g id="text_28">
      <!-- 25 -->
      <g transform="translate(196.275 354.420304)scale(0.1 -0.1)">
       <use xlink:href="#DejaVuSans-50"/>
       <use x="63.623047" xlink:href="#DejaVuSans-53"/>
      </g>
     </g>
    </g>
    <g id="ytick_8">
     <g id="line2d_53">
      <path clip-path="url(#pc7be6f20e3)" d="M 216 325.981422 
L 1555.2 325.981422 
" style="fill:none;stroke:#b0b0b0;stroke-linecap:square;stroke-width:0.8;"/>
     </g>
     <g id="line2d_54">
      <g>
       <use style="stroke:#000000;stroke-width:0.8;" x="216" xlink:href="#m43a6a1fd47" y="325.981422"/>
      </g>
     </g>
     <g id="text_29">
      <!-- 50 -->
      <g transform="translate(196.275 329.780641)scale(0.1 -0.1)">
       <use xlink:href="#DejaVuSans-53"/>
       <use x="63.623047" xlink:href="#DejaVuSans-48"/>
      </g>
     </g>
    </g>
    <g id="ytick_9">
     <g id="line2d_55">
      <path clip-path="url(#pc7be6f20e3)" d="M 216 301.341759 
L 1555.2 301.341759 
" style="fill:none;stroke:#b0b0b0;stroke-linecap:square;stroke-width:0.8;"/>
     </g>
     <g id="line2d_56">
      <g>
       <use style="stroke:#000000;stroke-width:0.8;" x="216" xlink:href="#m43a6a1fd47" y="301.341759"/>
      </g>
     </g>
     <g id="text_30">
      <!-- 75 -->
      <g transform="translate(196.275 305.140978)scale(0.1 -0.1)">
       <use xlink:href="#DejaVuSans-55"/>
       <use x="63.623047" xlink:href="#DejaVuSans-53"/>
      </g>
     </g>
    </g>
    <g id="ytick_10">
     <g id="line2d_57">
      <path clip-path="url(#pc7be6f20e3)" d="M 216 276.702097 
L 1555.2 276.702097 
" style="fill:none;stroke:#b0b0b0;stroke-linecap:square;stroke-width:0.8;"/>
     </g>
     <g id="line2d_58">
      <g>
       <use style="stroke:#000000;stroke-width:0.8;" x="216" xlink:href="#m43a6a1fd47" y="276.702097"/>
      </g>
     </g>
     <g id="text_31">
      <!-- 100 -->
      <g transform="translate(189.9125 280.501315)scale(0.1 -0.1)">
       <use xlink:href="#DejaVuSans-49"/>
       <use x="63.623047" xlink:href="#DejaVuSans-48"/>
       <use x="127.246094" xlink:href="#DejaVuSans-48"/>
      </g>
     </g>
    </g>
    <g id="ytick_11">
     <g id="line2d_59">
      <path clip-path="url(#pc7be6f20e3)" d="M 216 252.062434 
L 1555.2 252.062434 
" style="fill:none;stroke:#b0b0b0;stroke-linecap:square;stroke-width:0.8;"/>
     </g>
     <g id="line2d_60">
      <g>
       <use style="stroke:#000000;stroke-width:0.8;" x="216" xlink:href="#m43a6a1fd47" y="252.062434"/>
      </g>
     </g>
     <g id="text_32">
      <!-- 125 -->
      <g transform="translate(189.9125 255.861653)scale(0.1 -0.1)">
       <use xlink:href="#DejaVuSans-49"/>
       <use x="63.623047" xlink:href="#DejaVuSans-50"/>
       <use x="127.246094" xlink:href="#DejaVuSans-53"/>
      </g>
     </g>
    </g>
    <g id="text_33">
     <!-- Loss / Episode -->
     <g transform="translate(183.832812 344.347188)rotate(-90)scale(0.1 -0.1)">
      <defs>
       <path d="M 9.8125 72.90625 
L 19.671875 72.90625 
L 19.671875 8.296875 
L 55.171875 8.296875 
L 55.171875 0 
L 9.8125 0 
z
" id="DejaVuSans-76"/>
      </defs>
      <use xlink:href="#DejaVuSans-76"/>
      <use x="53.962891" xlink:href="#DejaVuSans-111"/>
      <use x="115.144531" xlink:href="#DejaVuSans-115"/>
      <use x="167.244141" xlink:href="#DejaVuSans-115"/>
      <use x="219.34375" xlink:href="#DejaVuSans-32"/>
      <use x="251.130859" xlink:href="#DejaVuSans-47"/>
      <use x="284.822266" xlink:href="#DejaVuSans-32"/>
      <use x="316.609375" xlink:href="#DejaVuSans-69"/>
      <use x="379.792969" xlink:href="#DejaVuSans-112"/>
      <use x="443.269531" xlink:href="#DejaVuSans-105"/>
      <use x="471.052734" xlink:href="#DejaVuSans-115"/>
      <use x="523.152344" xlink:href="#DejaVuSans-111"/>
      <use x="584.333984" xlink:href="#DejaVuSans-100"/>
      <use x="647.810547" xlink:href="#DejaVuSans-101"/>
     </g>
    </g>
   </g>
   <g id="line2d_61">
    <path clip-path="url(#pc7be6f20e3)" d="M 276.872727 364.294141 
L 282.990589 355.592303 
L 289.108451 366.934487 
L 295.226313 366.21503 
L 301.344175 364.449784 
L 307.462037 370.884357 
L 313.579899 364.893643 
L 319.697762 361.428959 
L 325.815624 359.62248 
L 331.933486 342.333908 
L 338.051348 357.365401 
L 344.16921 355.219244 
L 350.287072 364.620183 
L 356.404934 364.273663 
L 362.522796 359.777247 
L 368.640658 361.266889 
L 374.75852 358.675776 
L 380.876382 364.961109 
L 386.994244 369.784161 
L 393.112106 360.829293 
L 399.229968 364.280393 
L 405.34783 355.755869 
L 411.465692 359.838118 
L 417.583554 361.920049 
L 423.701416 361.656337 
L 429.819278 363.375539 
L 435.93714 354.744412 
L 442.055002 361.297002 
L 448.172864 352.421131 
L 454.290726 359.512578 
L 460.408588 355.149183 
L 466.52645 352.873924 
L 472.644312 350.863583 
L 478.762175 372.000794 
L 484.880037 361.399886 
L 490.997899 364.174918 
L 497.115761 355.759257 
L 503.233623 353.649881 
L 509.351485 358.906454 
L 515.469347 365.676083 
L 521.587209 348.362666 
L 527.705071 364.009175 
L 533.822933 367.63461 
L 539.940795 363.096701 
L 546.058657 363.164351 
L 552.176519 362.025339 
L 558.294381 354.215406 
L 564.412243 369.403195 
L 570.530105 363.833341 
L 576.647967 359.161219 
L 582.765829 370.305492 
L 588.883691 367.204939 
L 595.001553 354.342869 
L 601.119415 369.101567 
L 607.237277 373.875672 
L 613.355139 368.28645 
L 619.473001 365.428715 
L 625.590863 363.775855 
L 631.708725 355.86583 
L 637.826587 360.55981 
L 643.94445 360.982423 
L 650.062312 333.757722 
L 656.180174 357.118777 
L 662.298036 341.98668 
L 668.415898 356.562787 
L 674.53376 360.917047 
L 680.651622 292.956522 
L 686.769484 360.353254 
L 692.887346 341.345893 
L 699.005208 352.524685 
L 705.12307 357.983397 
L 711.240932 351.843317 
L 717.358794 355.371063 
L 723.476656 375.394948 
L 729.594518 324.749277 
L 735.71238 372.567236 
L 741.830242 364.733605 
L 747.948104 363.898293 
L 754.065966 321.932695 
L 760.183828 370.783587 
L 766.30169 345.155788 
L 772.419552 287.763071 
L 778.537414 361.297449 
L 784.655276 365.251517 
L 790.773138 354.4276 
L 796.891 313.102826 
L 803.008862 355.454622 
L 809.126725 368.054511 
L 815.244587 285.621838 
L 821.362449 294.318989 
L 827.480311 374.09067 
L 833.598173 368.102164 
L 839.716035 317.457579 
L 845.833897 370.070331 
L 851.951759 338.410853 
L 858.069621 309.938767 
L 864.187483 329.832791 
L 870.305345 345.037041 
L 876.423207 313.138938 
L 882.541069 356.070821 
L 888.658931 347.958376 
L 894.776793 360.581744 
L 900.894655 332.94818 
L 907.012517 343.505525 
L 913.130379 368.569567 
L 919.248241 311.294354 
L 925.366103 240.152727 
L 931.483965 295.623106 
L 937.601827 375.871223 
L 943.719689 322.54869 
L 949.837551 360.696741 
L 955.955413 367.915896 
L 962.073275 365.132533 
L 968.191138 361.702162 
L 974.309 369.19919 
L 980.426862 343.803108 
L 986.544724 365.151273 
L 992.662586 372.063217 
L 998.780448 353.737576 
L 1004.89831 313.963026 
L 1011.016172 349.928702 
L 1017.134034 353.86109 
L 1023.251896 339.993185 
L 1029.369758 293.520539 
L 1035.48762 375.062589 
L 1041.605482 375.175799 
L 1047.723344 324.795699 
L 1053.841206 347.030857 
L 1059.959068 334.2654 
L 1066.07693 341.519719 
L 1072.194792 371.690854 
L 1078.312654 345.364548 
L 1084.430516 351.716216 
L 1090.548378 374.897687 
L 1096.66624 335.823576 
L 1102.784102 339.699093 
L 1108.901964 369.490184 
L 1115.019826 377.607273 
L 1121.137688 348.639639 
L 1127.25555 352.431478 
L 1133.373413 363.399019 
L 1139.491275 376.6684 
L 1145.609137 352.263005 
L 1151.726999 358.873887 
L 1157.844861 318.47316 
L 1163.962723 367.266672 
L 1170.080585 334.194999 
L 1176.198447 350.914516 
L 1182.316309 339.083101 
L 1188.434171 346.310992 
L 1194.552033 330.037985 
L 1200.669895 367.968176 
L 1206.787757 371.897803 
L 1212.905619 369.579087 
L 1219.023481 367.440738 
L 1225.141343 345.455507 
L 1231.259205 348.37819 
L 1237.377067 369.262783 
L 1243.494929 353.054816 
L 1249.612791 363.212304 
L 1255.730653 371.825703 
L 1261.848515 354.418033 
L 1267.966377 340.567891 
L 1274.084239 370.635346 
L 1280.202101 368.83959 
L 1286.319963 348.30211 
L 1292.437825 375.457729 
L 1298.555688 249.050888 
L 1304.67355 349.877635 
L 1310.791412 253.42145 
L 1316.909274 344.622967 
L 1323.027136 354.742459 
L 1329.144998 311.638195 
L 1335.26286 363.650908 
L 1341.380722 341.73429 
L 1347.498584 374.346301 
L 1353.616446 293.150876 
L 1359.734308 353.412049 
L 1365.85217 319.377131 
L 1371.970032 351.184745 
L 1378.087894 290.494864 
L 1384.205756 248.090191 
L 1390.323618 272.907417 
L 1396.44148 340.487264 
L 1402.559342 352.621445 
L 1408.677204 360.153549 
L 1414.795066 351.57847 
L 1420.912928 367.249996 
L 1427.03079 354.68772 
L 1433.148652 353.079701 
L 1439.266514 377.198387 
L 1445.384376 351.142614 
L 1451.502238 365.448499 
L 1457.620101 372.880543 
L 1463.737963 368.666348 
L 1469.855825 375.804059 
L 1475.973687 267.24634 
L 1482.091549 267.332491 
L 1488.209411 315.320223 
L 1494.327273 358.413786 
L 1494.327273 358.413786 
" style="fill:none;stroke:#ffa500;stroke-linecap:square;stroke-width:1.5;"/>
   </g>
   <g id="patch_8">
    <path d="M 216 384.48 
L 216 233.28 
" style="fill:none;stroke:#000000;stroke-linecap:square;stroke-linejoin:miter;stroke-width:0.8;"/>
   </g>
   <g id="patch_9">
    <path d="M 1555.2 384.48 
L 1555.2 233.28 
" style="fill:none;stroke:#000000;stroke-linecap:square;stroke-linejoin:miter;stroke-width:0.8;"/>
   </g>
   <g id="patch_10">
    <path d="M 216 384.48 
L 1555.2 384.48 
" style="fill:none;stroke:#000000;stroke-linecap:square;stroke-linejoin:miter;stroke-width:0.8;"/>
   </g>
   <g id="patch_11">
    <path d="M 216 233.28 
L 1555.2 233.28 
" style="fill:none;stroke:#000000;stroke-linecap:square;stroke-linejoin:miter;stroke-width:0.8;"/>
   </g>
  </g>
  <g id="text_34">
   <!-- CartPole A2C Result (Evaluate Reward: 163.0) -->
   <g transform="translate(726.265312 17.758125)scale(0.12 -0.12)">
    <defs>
     <path d="M 64.40625 67.28125 
L 64.40625 56.890625 
Q 59.421875 61.53125 53.78125 63.8125 
Q 48.140625 66.109375 41.796875 66.109375 
Q 29.296875 66.109375 22.65625 58.46875 
Q 16.015625 50.828125 16.015625 36.375 
Q 16.015625 21.96875 22.65625 14.328125 
Q 29.296875 6.6875 41.796875 6.6875 
Q 48.140625 6.6875 53.78125 8.984375 
Q 59.421875 11.28125 64.40625 15.921875 
L 64.40625 5.609375 
Q 59.234375 2.09375 53.4375 0.328125 
Q 47.65625 -1.421875 41.21875 -1.421875 
Q 24.65625 -1.421875 15.125 8.703125 
Q 5.609375 18.84375 5.609375 36.375 
Q 5.609375 53.953125 15.125 64.078125 
Q 24.65625 74.21875 41.21875 74.21875 
Q 47.75 74.21875 53.53125 72.484375 
Q 59.328125 70.75 64.40625 67.28125 
z
" id="DejaVuSans-67"/>
     <path d="M 18.3125 70.21875 
L 18.3125 54.6875 
L 36.8125 54.6875 
L 36.8125 47.703125 
L 18.3125 47.703125 
L 18.3125 18.015625 
Q 18.3125 11.328125 20.140625 9.421875 
Q 21.96875 7.515625 27.59375 7.515625 
L 36.8125 7.515625 
L 36.8125 0 
L 27.59375 0 
Q 17.1875 0 13.234375 3.875 
Q 9.28125 7.765625 9.28125 18.015625 
L 9.28125 47.703125 
L 2.6875 47.703125 
L 2.6875 54.6875 
L 9.28125 54.6875 
L 9.28125 70.21875 
z
" id="DejaVuSans-116"/>
     <path d="M 19.671875 64.796875 
L 19.671875 37.40625 
L 32.078125 37.40625 
Q 38.96875 37.40625 42.71875 40.96875 
Q 46.484375 44.53125 46.484375 51.125 
Q 46.484375 57.671875 42.71875 61.234375 
Q 38.96875 64.796875 32.078125 64.796875 
z
M 9.8125 72.90625 
L 32.078125 72.90625 
Q 44.34375 72.90625 50.609375 67.359375 
Q 56.890625 61.8125 56.890625 51.125 
Q 56.890625 40.328125 50.609375 34.8125 
Q 44.34375 29.296875 32.078125 29.296875 
L 19.671875 29.296875 
L 19.671875 0 
L 9.8125 0 
z
" id="DejaVuSans-80"/>
     <path d="M 9.421875 75.984375 
L 18.40625 75.984375 
L 18.40625 0 
L 9.421875 0 
z
" id="DejaVuSans-108"/>
     <path d="M 34.1875 63.1875 
L 20.796875 26.90625 
L 47.609375 26.90625 
z
M 28.609375 72.90625 
L 39.796875 72.90625 
L 67.578125 0 
L 57.328125 0 
L 50.6875 18.703125 
L 17.828125 18.703125 
L 11.1875 0 
L 0.78125 0 
z
" id="DejaVuSans-65"/>
     <path d="M 8.5 21.578125 
L 8.5 54.6875 
L 17.484375 54.6875 
L 17.484375 21.921875 
Q 17.484375 14.15625 20.5 10.265625 
Q 23.53125 6.390625 29.59375 6.390625 
Q 36.859375 6.390625 41.078125 11.03125 
Q 45.3125 15.671875 45.3125 23.6875 
L 45.3125 54.6875 
L 54.296875 54.6875 
L 54.296875 0 
L 45.3125 0 
L 45.3125 8.40625 
Q 42.046875 3.421875 37.71875 1 
Q 33.40625 -1.421875 27.6875 -1.421875 
Q 18.265625 -1.421875 13.375 4.4375 
Q 8.5 10.296875 8.5 21.578125 
z
M 31.109375 56 
z
" id="DejaVuSans-117"/>
     <path d="M 31 75.875 
Q 24.46875 64.65625 21.28125 53.65625 
Q 18.109375 42.671875 18.109375 31.390625 
Q 18.109375 20.125 21.3125 9.0625 
Q 24.515625 -2 31 -13.1875 
L 23.1875 -13.1875 
Q 15.875 -1.703125 12.234375 9.375 
Q 8.59375 20.453125 8.59375 31.390625 
Q 8.59375 42.28125 12.203125 53.3125 
Q 15.828125 64.359375 23.1875 75.875 
z
" id="DejaVuSans-40"/>
     <path d="M 2.984375 54.6875 
L 12.5 54.6875 
L 29.59375 8.796875 
L 46.6875 54.6875 
L 56.203125 54.6875 
L 35.6875 0 
L 23.484375 0 
z
" id="DejaVuSans-118"/>
     <path d="M 11.71875 12.40625 
L 22.015625 12.40625 
L 22.015625 0 
L 11.71875 0 
z
M 11.71875 51.703125 
L 22.015625 51.703125 
L 22.015625 39.3125 
L 11.71875 39.3125 
z
" id="DejaVuSans-58"/>
     <path d="M 33.015625 40.375 
Q 26.375 40.375 22.484375 35.828125 
Q 18.609375 31.296875 18.609375 23.390625 
Q 18.609375 15.53125 22.484375 10.953125 
Q 26.375 6.390625 33.015625 6.390625 
Q 39.65625 6.390625 43.53125 10.953125 
Q 47.40625 15.53125 47.40625 23.390625 
Q 47.40625 31.296875 43.53125 35.828125 
Q 39.65625 40.375 33.015625 40.375 
z
M 52.59375 71.296875 
L 52.59375 62.3125 
Q 48.875 64.0625 45.09375 64.984375 
Q 41.3125 65.921875 37.59375 65.921875 
Q 27.828125 65.921875 22.671875 59.328125 
Q 17.53125 52.734375 16.796875 39.40625 
Q 19.671875 43.65625 24.015625 45.921875 
Q 28.375 48.1875 33.59375 48.1875 
Q 44.578125 48.1875 50.953125 41.515625 
Q 57.328125 34.859375 57.328125 23.390625 
Q 57.328125 12.15625 50.6875 5.359375 
Q 44.046875 -1.421875 33.015625 -1.421875 
Q 20.359375 -1.421875 13.671875 8.265625 
Q 6.984375 17.96875 6.984375 36.375 
Q 6.984375 53.65625 15.1875 63.9375 
Q 23.390625 74.21875 37.203125 74.21875 
Q 40.921875 74.21875 44.703125 73.484375 
Q 48.484375 72.75 52.59375 71.296875 
z
" id="DejaVuSans-54"/>
     <path d="M 40.578125 39.3125 
Q 47.65625 37.796875 51.625 33 
Q 55.609375 28.21875 55.609375 21.1875 
Q 55.609375 10.40625 48.1875 4.484375 
Q 40.765625 -1.421875 27.09375 -1.421875 
Q 22.515625 -1.421875 17.65625 -0.515625 
Q 12.796875 0.390625 7.625 2.203125 
L 7.625 11.71875 
Q 11.71875 9.328125 16.59375 8.109375 
Q 21.484375 6.890625 26.8125 6.890625 
Q 36.078125 6.890625 40.9375 10.546875 
Q 45.796875 14.203125 45.796875 21.1875 
Q 45.796875 27.640625 41.28125 31.265625 
Q 36.765625 34.90625 28.71875 34.90625 
L 20.21875 34.90625 
L 20.21875 43.015625 
L 29.109375 43.015625 
Q 36.375 43.015625 40.234375 45.921875 
Q 44.09375 48.828125 44.09375 54.296875 
Q 44.09375 59.90625 40.109375 62.90625 
Q 36.140625 65.921875 28.71875 65.921875 
Q 24.65625 65.921875 20.015625 65.03125 
Q 15.375 64.15625 9.8125 62.3125 
L 9.8125 71.09375 
Q 15.4375 72.65625 20.34375 73.4375 
Q 25.25 74.21875 29.59375 74.21875 
Q 40.828125 74.21875 47.359375 69.109375 
Q 53.90625 64.015625 53.90625 55.328125 
Q 53.90625 49.265625 50.4375 45.09375 
Q 46.96875 40.921875 40.578125 39.3125 
z
" id="DejaVuSans-51"/>
     <path d="M 10.6875 12.40625 
L 21 12.40625 
L 21 0 
L 10.6875 0 
z
" id="DejaVuSans-46"/>
     <path d="M 8.015625 75.875 
L 15.828125 75.875 
Q 23.140625 64.359375 26.78125 53.3125 
Q 30.421875 42.28125 30.421875 31.390625 
Q 30.421875 20.453125 26.78125 9.375 
Q 23.140625 -1.703125 15.828125 -13.1875 
L 8.015625 -13.1875 
Q 14.5 -2 17.703125 9.0625 
Q 20.90625 20.125 20.90625 31.390625 
Q 20.90625 42.671875 17.703125 53.65625 
Q 14.5 64.65625 8.015625 75.875 
z
" id="DejaVuSans-41"/>
    </defs>
    <use xlink:href="#DejaVuSans-67"/>
    <use x="69.824219" xlink:href="#DejaVuSans-97"/>
    <use x="131.103516" xlink:href="#DejaVuSans-114"/>
    <use x="172.216797" xlink:href="#DejaVuSans-116"/>
    <use x="211.425781" xlink:href="#DejaVuSans-80"/>
    <use x="268.103516" xlink:href="#DejaVuSans-111"/>
    <use x="329.285156" xlink:href="#DejaVuSans-108"/>
    <use x="357.068359" xlink:href="#DejaVuSans-101"/>
    <use x="418.591797" xlink:href="#DejaVuSans-32"/>
    <use x="450.378906" xlink:href="#DejaVuSans-65"/>
    <use x="518.787109" xlink:href="#DejaVuSans-50"/>
    <use x="582.410156" xlink:href="#DejaVuSans-67"/>
    <use x="652.234375" xlink:href="#DejaVuSans-32"/>
    <use x="684.021484" xlink:href="#DejaVuSans-82"/>
    <use x="749.003906" xlink:href="#DejaVuSans-101"/>
    <use x="810.527344" xlink:href="#DejaVuSans-115"/>
    <use x="862.626953" xlink:href="#DejaVuSans-117"/>
    <use x="926.005859" xlink:href="#DejaVuSans-108"/>
    <use x="953.789062" xlink:href="#DejaVuSans-116"/>
    <use x="992.998047" xlink:href="#DejaVuSans-32"/>
    <use x="1024.785156" xlink:href="#DejaVuSans-40"/>
    <use x="1063.798828" xlink:href="#DejaVuSans-69"/>
    <use x="1126.982422" xlink:href="#DejaVuSans-118"/>
    <use x="1186.162109" xlink:href="#DejaVuSans-97"/>
    <use x="1247.441406" xlink:href="#DejaVuSans-108"/>
    <use x="1275.224609" xlink:href="#DejaVuSans-117"/>
    <use x="1338.603516" xlink:href="#DejaVuSans-97"/>
    <use x="1399.882812" xlink:href="#DejaVuSans-116"/>
    <use x="1439.091797" xlink:href="#DejaVuSans-101"/>
    <use x="1500.615234" xlink:href="#DejaVuSans-32"/>
    <use x="1532.402344" xlink:href="#DejaVuSans-82"/>
    <use x="1597.384766" xlink:href="#DejaVuSans-101"/>
    <use x="1658.908203" xlink:href="#DejaVuSans-119"/>
    <use x="1740.695312" xlink:href="#DejaVuSans-97"/>
    <use x="1801.974609" xlink:href="#DejaVuSans-114"/>
    <use x="1841.337891" xlink:href="#DejaVuSans-100"/>
    <use x="1904.814453" xlink:href="#DejaVuSans-58"/>
    <use x="1938.505859" xlink:href="#DejaVuSans-32"/>
    <use x="1970.292969" xlink:href="#DejaVuSans-49"/>
    <use x="2033.916016" xlink:href="#DejaVuSans-54"/>
    <use x="2097.539062" xlink:href="#DejaVuSans-51"/>
    <use x="2161.162109" xlink:href="#DejaVuSans-46"/>
    <use x="2192.949219" xlink:href="#DejaVuSans-48"/>
    <use x="2256.572266" xlink:href="#DejaVuSans-41"/>
   </g>
  </g>
 </g>
 <defs>
  <clipPath id="pd7ce544b18">
   <rect height="151.2" width="1339.2" x="216" y="51.84"/>
  </clipPath>
  <clipPath id="pc7be6f20e3">
   <rect height="151.2" width="1339.2" x="216" y="233.28"/>
  </clipPath>
 </defs>
</svg>
