<?xml version="1.0" encoding="utf-8" standalone="no"?>
<!DOCTYPE svg PUBLIC "-//W3C//DTD SVG 1.1//EN"
  "http://www.w3.org/Graphics/SVG/1.1/DTD/svg11.dtd">
<!-- Created with matplotlib (https://matplotlib.org/) -->
<svg height="432pt" version="1.1" viewBox="0 0 1728 432" width="1728pt" xmlns="http://www.w3.org/2000/svg" xmlns:xlink="http://www.w3.org/1999/xlink">
 <metadata>
  <rdf:RDF xmlns:cc="http://creativecommons.org/ns#" xmlns:dc="http://purl.org/dc/elements/1.1/" xmlns:rdf="http://www.w3.org/1999/02/22-rdf-syntax-ns#">
   <cc:Work>
    <dc:type rdf:resource="http://purl.org/dc/dcmitype/StillImage"/>
    <dc:date>2020-08-15T14:40:42.617549</dc:date>
    <dc:format>image/svg+xml</dc:format>
    <dc:creator>
     <cc:Agent>
      <dc:title>Matplotlib v3.3.0, https://matplotlib.org/</dc:title>
     </cc:Agent>
    </dc:creator>
   </cc:Work>
  </rdf:RDF>
 </metadata>
 <defs>
  <style type="text/css">*{stroke-linecap:butt;stroke-linejoin:round;}</style>
 </defs>
 <g id="figure_1">
  <g id="patch_1">
   <path d="M 0 432 
L 1728 432 
L 1728 0 
L 0 0 
z
" style="fill:#ffffff;"/>
  </g>
  <g id="axes_1">
   <g id="patch_2">
    <path d="M 216 203.04 
L 1555.2 203.04 
L 1555.2 51.84 
L 216 51.84 
z
" style="fill:#ffffff;"/>
   </g>
   <g id="matplotlib.axis_1">
    <g id="xtick_1">
     <g id="line2d_1">
      <path clip-path="url(#pb9b6f01c83)" d="M 276.872727 203.04 
L 276.872727 51.84 
" style="fill:none;stroke:#b0b0b0;stroke-linecap:square;stroke-width:0.8;"/>
     </g>
     <g id="line2d_2">
      <defs>
       <path d="M 0 0 
L 0 3.5 
" id="m80863e29b1" style="stroke:#000000;stroke-width:0.8;"/>
      </defs>
      <g>
       <use style="stroke:#000000;stroke-width:0.8;" x="276.872727" xlink:href="#m80863e29b1" y="203.04"/>
      </g>
     </g>
     <g id="text_1">
      <!-- 0 -->
      <g transform="translate(273.691477 217.638437)scale(0.1 -0.1)">
       <defs>
        <path d="M 31.78125 66.40625 
Q 24.171875 66.40625 20.328125 58.90625 
Q 16.5 51.421875 16.5 36.375 
Q 16.5 21.390625 20.328125 13.890625 
Q 24.171875 6.390625 31.78125 6.390625 
Q 39.453125 6.390625 43.28125 13.890625 
Q 47.125 21.390625 47.125 36.375 
Q 47.125 51.421875 43.28125 58.90625 
Q 39.453125 66.40625 31.78125 66.40625 
z
M 31.78125 74.21875 
Q 44.046875 74.21875 50.515625 64.515625 
Q 56.984375 54.828125 56.984375 36.375 
Q 56.984375 17.96875 50.515625 8.265625 
Q 44.046875 -1.421875 31.78125 -1.421875 
Q 19.53125 -1.421875 13.0625 8.265625 
Q 6.59375 17.96875 6.59375 36.375 
Q 6.59375 54.828125 13.0625 64.515625 
Q 19.53125 74.21875 31.78125 74.21875 
z
" id="DejaVuSans-48"/>
       </defs>
       <use xlink:href="#DejaVuSans-48"/>
      </g>
     </g>
    </g>
    <g id="xtick_2">
     <g id="line2d_3">
      <path clip-path="url(#pb9b6f01c83)" d="M 429.054545 203.04 
L 429.054545 51.84 
" style="fill:none;stroke:#b0b0b0;stroke-linecap:square;stroke-width:0.8;"/>
     </g>
     <g id="line2d_4">
      <g>
       <use style="stroke:#000000;stroke-width:0.8;" x="429.054545" xlink:href="#m80863e29b1" y="203.04"/>
      </g>
     </g>
     <g id="text_2">
      <!-- 50 -->
      <g transform="translate(422.692045 217.638437)scale(0.1 -0.1)">
       <defs>
        <path d="M 10.796875 72.90625 
L 49.515625 72.90625 
L 49.515625 64.59375 
L 19.828125 64.59375 
L 19.828125 46.734375 
Q 21.96875 47.46875 24.109375 47.828125 
Q 26.265625 48.1875 28.421875 48.1875 
Q 40.625 48.1875 47.75 41.5 
Q 54.890625 34.8125 54.890625 23.390625 
Q 54.890625 11.625 47.5625 5.09375 
Q 40.234375 -1.421875 26.90625 -1.421875 
Q 22.3125 -1.421875 17.546875 -0.640625 
Q 12.796875 0.140625 7.71875 1.703125 
L 7.71875 11.625 
Q 12.109375 9.234375 16.796875 8.0625 
Q 21.484375 6.890625 26.703125 6.890625 
Q 35.15625 6.890625 40.078125 11.328125 
Q 45.015625 15.765625 45.015625 23.390625 
Q 45.015625 31 40.078125 35.4375 
Q 35.15625 39.890625 26.703125 39.890625 
Q 22.75 39.890625 18.8125 39.015625 
Q 14.890625 38.140625 10.796875 36.28125 
z
" id="DejaVuSans-53"/>
       </defs>
       <use xlink:href="#DejaVuSans-53"/>
       <use x="63.623047" xlink:href="#DejaVuSans-48"/>
      </g>
     </g>
    </g>
    <g id="xtick_3">
     <g id="line2d_5">
      <path clip-path="url(#pb9b6f01c83)" d="M 581.236364 203.04 
L 581.236364 51.84 
" style="fill:none;stroke:#b0b0b0;stroke-linecap:square;stroke-width:0.8;"/>
     </g>
     <g id="line2d_6">
      <g>
       <use style="stroke:#000000;stroke-width:0.8;" x="581.236364" xlink:href="#m80863e29b1" y="203.04"/>
      </g>
     </g>
     <g id="text_3">
      <!-- 100 -->
      <g transform="translate(571.692614 217.638437)scale(0.1 -0.1)">
       <defs>
        <path d="M 12.40625 8.296875 
L 28.515625 8.296875 
L 28.515625 63.921875 
L 10.984375 60.40625 
L 10.984375 69.390625 
L 28.421875 72.90625 
L 38.28125 72.90625 
L 38.28125 8.296875 
L 54.390625 8.296875 
L 54.390625 0 
L 12.40625 0 
z
" id="DejaVuSans-49"/>
       </defs>
       <use xlink:href="#DejaVuSans-49"/>
       <use x="63.623047" xlink:href="#DejaVuSans-48"/>
       <use x="127.246094" xlink:href="#DejaVuSans-48"/>
      </g>
     </g>
    </g>
    <g id="xtick_4">
     <g id="line2d_7">
      <path clip-path="url(#pb9b6f01c83)" d="M 733.418182 203.04 
L 733.418182 51.84 
" style="fill:none;stroke:#b0b0b0;stroke-linecap:square;stroke-width:0.8;"/>
     </g>
     <g id="line2d_8">
      <g>
       <use style="stroke:#000000;stroke-width:0.8;" x="733.418182" xlink:href="#m80863e29b1" y="203.04"/>
      </g>
     </g>
     <g id="text_4">
      <!-- 150 -->
      <g transform="translate(723.874432 217.638437)scale(0.1 -0.1)">
       <use xlink:href="#DejaVuSans-49"/>
       <use x="63.623047" xlink:href="#DejaVuSans-53"/>
       <use x="127.246094" xlink:href="#DejaVuSans-48"/>
      </g>
     </g>
    </g>
    <g id="xtick_5">
     <g id="line2d_9">
      <path clip-path="url(#pb9b6f01c83)" d="M 885.6 203.04 
L 885.6 51.84 
" style="fill:none;stroke:#b0b0b0;stroke-linecap:square;stroke-width:0.8;"/>
     </g>
     <g id="line2d_10">
      <g>
       <use style="stroke:#000000;stroke-width:0.8;" x="885.6" xlink:href="#m80863e29b1" y="203.04"/>
      </g>
     </g>
     <g id="text_5">
      <!-- 200 -->
      <g transform="translate(876.05625 217.638437)scale(0.1 -0.1)">
       <defs>
        <path d="M 19.1875 8.296875 
L 53.609375 8.296875 
L 53.609375 0 
L 7.328125 0 
L 7.328125 8.296875 
Q 12.9375 14.109375 22.625 23.890625 
Q 32.328125 33.6875 34.8125 36.53125 
Q 39.546875 41.84375 41.421875 45.53125 
Q 43.3125 49.21875 43.3125 52.78125 
Q 43.3125 58.59375 39.234375 62.25 
Q 35.15625 65.921875 28.609375 65.921875 
Q 23.96875 65.921875 18.8125 64.3125 
Q 13.671875 62.703125 7.8125 59.421875 
L 7.8125 69.390625 
Q 13.765625 71.78125 18.9375 73 
Q 24.125 74.21875 28.421875 74.21875 
Q 39.75 74.21875 46.484375 68.546875 
Q 53.21875 62.890625 53.21875 53.421875 
Q 53.21875 48.921875 51.53125 44.890625 
Q 49.859375 40.875 45.40625 35.40625 
Q 44.1875 33.984375 37.640625 27.21875 
Q 31.109375 20.453125 19.1875 8.296875 
z
" id="DejaVuSans-50"/>
       </defs>
       <use xlink:href="#DejaVuSans-50"/>
       <use x="63.623047" xlink:href="#DejaVuSans-48"/>
       <use x="127.246094" xlink:href="#DejaVuSans-48"/>
      </g>
     </g>
    </g>
    <g id="xtick_6">
     <g id="line2d_11">
      <path clip-path="url(#pb9b6f01c83)" d="M 1037.781818 203.04 
L 1037.781818 51.84 
" style="fill:none;stroke:#b0b0b0;stroke-linecap:square;stroke-width:0.8;"/>
     </g>
     <g id="line2d_12">
      <g>
       <use style="stroke:#000000;stroke-width:0.8;" x="1037.781818" xlink:href="#m80863e29b1" y="203.04"/>
      </g>
     </g>
     <g id="text_6">
      <!-- 250 -->
      <g transform="translate(1028.238068 217.638437)scale(0.1 -0.1)">
       <use xlink:href="#DejaVuSans-50"/>
       <use x="63.623047" xlink:href="#DejaVuSans-53"/>
       <use x="127.246094" xlink:href="#DejaVuSans-48"/>
      </g>
     </g>
    </g>
    <g id="xtick_7">
     <g id="line2d_13">
      <path clip-path="url(#pb9b6f01c83)" d="M 1189.963636 203.04 
L 1189.963636 51.84 
" style="fill:none;stroke:#b0b0b0;stroke-linecap:square;stroke-width:0.8;"/>
     </g>
     <g id="line2d_14">
      <g>
       <use style="stroke:#000000;stroke-width:0.8;" x="1189.963636" xlink:href="#m80863e29b1" y="203.04"/>
      </g>
     </g>
     <g id="text_7">
      <!-- 300 -->
      <g transform="translate(1180.419886 217.638437)scale(0.1 -0.1)">
       <defs>
        <path d="M 40.578125 39.3125 
Q 47.65625 37.796875 51.625 33 
Q 55.609375 28.21875 55.609375 21.1875 
Q 55.609375 10.40625 48.1875 4.484375 
Q 40.765625 -1.421875 27.09375 -1.421875 
Q 22.515625 -1.421875 17.65625 -0.515625 
Q 12.796875 0.390625 7.625 2.203125 
L 7.625 11.71875 
Q 11.71875 9.328125 16.59375 8.109375 
Q 21.484375 6.890625 26.8125 6.890625 
Q 36.078125 6.890625 40.9375 10.546875 
Q 45.796875 14.203125 45.796875 21.1875 
Q 45.796875 27.640625 41.28125 31.265625 
Q 36.765625 34.90625 28.71875 34.90625 
L 20.21875 34.90625 
L 20.21875 43.015625 
L 29.109375 43.015625 
Q 36.375 43.015625 40.234375 45.921875 
Q 44.09375 48.828125 44.09375 54.296875 
Q 44.09375 59.90625 40.109375 62.90625 
Q 36.140625 65.921875 28.71875 65.921875 
Q 24.65625 65.921875 20.015625 65.03125 
Q 15.375 64.15625 9.8125 62.3125 
L 9.8125 71.09375 
Q 15.4375 72.65625 20.34375 73.4375 
Q 25.25 74.21875 29.59375 74.21875 
Q 40.828125 74.21875 47.359375 69.109375 
Q 53.90625 64.015625 53.90625 55.328125 
Q 53.90625 49.265625 50.4375 45.09375 
Q 46.96875 40.921875 40.578125 39.3125 
z
" id="DejaVuSans-51"/>
       </defs>
       <use xlink:href="#DejaVuSans-51"/>
       <use x="63.623047" xlink:href="#DejaVuSans-48"/>
       <use x="127.246094" xlink:href="#DejaVuSans-48"/>
      </g>
     </g>
    </g>
    <g id="xtick_8">
     <g id="line2d_15">
      <path clip-path="url(#pb9b6f01c83)" d="M 1342.145455 203.04 
L 1342.145455 51.84 
" style="fill:none;stroke:#b0b0b0;stroke-linecap:square;stroke-width:0.8;"/>
     </g>
     <g id="line2d_16">
      <g>
       <use style="stroke:#000000;stroke-width:0.8;" x="1342.145455" xlink:href="#m80863e29b1" y="203.04"/>
      </g>
     </g>
     <g id="text_8">
      <!-- 350 -->
      <g transform="translate(1332.601705 217.638437)scale(0.1 -0.1)">
       <use xlink:href="#DejaVuSans-51"/>
       <use x="63.623047" xlink:href="#DejaVuSans-53"/>
       <use x="127.246094" xlink:href="#DejaVuSans-48"/>
      </g>
     </g>
    </g>
    <g id="xtick_9">
     <g id="line2d_17">
      <path clip-path="url(#pb9b6f01c83)" d="M 1494.327273 203.04 
L 1494.327273 51.84 
" style="fill:none;stroke:#b0b0b0;stroke-linecap:square;stroke-width:0.8;"/>
     </g>
     <g id="line2d_18">
      <g>
       <use style="stroke:#000000;stroke-width:0.8;" x="1494.327273" xlink:href="#m80863e29b1" y="203.04"/>
      </g>
     </g>
     <g id="text_9">
      <!-- 400 -->
      <g transform="translate(1484.783523 217.638437)scale(0.1 -0.1)">
       <defs>
        <path d="M 37.796875 64.3125 
L 12.890625 25.390625 
L 37.796875 25.390625 
z
M 35.203125 72.90625 
L 47.609375 72.90625 
L 47.609375 25.390625 
L 58.015625 25.390625 
L 58.015625 17.1875 
L 47.609375 17.1875 
L 47.609375 0 
L 37.796875 0 
L 37.796875 17.1875 
L 4.890625 17.1875 
L 4.890625 26.703125 
z
" id="DejaVuSans-52"/>
       </defs>
       <use xlink:href="#DejaVuSans-52"/>
       <use x="63.623047" xlink:href="#DejaVuSans-48"/>
       <use x="127.246094" xlink:href="#DejaVuSans-48"/>
      </g>
     </g>
    </g>
    <g id="text_10">
     <!-- Episodes -->
     <g transform="translate(863.357813 231.316562)scale(0.1 -0.1)">
      <defs>
       <path d="M 9.8125 72.90625 
L 55.90625 72.90625 
L 55.90625 64.59375 
L 19.671875 64.59375 
L 19.671875 43.015625 
L 54.390625 43.015625 
L 54.390625 34.71875 
L 19.671875 34.71875 
L 19.671875 8.296875 
L 56.78125 8.296875 
L 56.78125 0 
L 9.8125 0 
z
" id="DejaVuSans-69"/>
       <path d="M 18.109375 8.203125 
L 18.109375 -20.796875 
L 9.078125 -20.796875 
L 9.078125 54.6875 
L 18.109375 54.6875 
L 18.109375 46.390625 
Q 20.953125 51.265625 25.265625 53.625 
Q 29.59375 56 35.59375 56 
Q 45.5625 56 51.78125 48.09375 
Q 58.015625 40.1875 58.015625 27.296875 
Q 58.015625 14.40625 51.78125 6.484375 
Q 45.5625 -1.421875 35.59375 -1.421875 
Q 29.59375 -1.421875 25.265625 0.953125 
Q 20.953125 3.328125 18.109375 8.203125 
z
M 48.6875 27.296875 
Q 48.6875 37.203125 44.609375 42.84375 
Q 40.53125 48.484375 33.40625 48.484375 
Q 26.265625 48.484375 22.1875 42.84375 
Q 18.109375 37.203125 18.109375 27.296875 
Q 18.109375 17.390625 22.1875 11.75 
Q 26.265625 6.109375 33.40625 6.109375 
Q 40.53125 6.109375 44.609375 11.75 
Q 48.6875 17.390625 48.6875 27.296875 
z
" id="DejaVuSans-112"/>
       <path d="M 9.421875 54.6875 
L 18.40625 54.6875 
L 18.40625 0 
L 9.421875 0 
z
M 9.421875 75.984375 
L 18.40625 75.984375 
L 18.40625 64.59375 
L 9.421875 64.59375 
z
" id="DejaVuSans-105"/>
       <path d="M 44.28125 53.078125 
L 44.28125 44.578125 
Q 40.484375 46.53125 36.375 47.5 
Q 32.28125 48.484375 27.875 48.484375 
Q 21.1875 48.484375 17.84375 46.4375 
Q 14.5 44.390625 14.5 40.28125 
Q 14.5 37.15625 16.890625 35.375 
Q 19.28125 33.59375 26.515625 31.984375 
L 29.59375 31.296875 
Q 39.15625 29.25 43.1875 25.515625 
Q 47.21875 21.78125 47.21875 15.09375 
Q 47.21875 7.46875 41.1875 3.015625 
Q 35.15625 -1.421875 24.609375 -1.421875 
Q 20.21875 -1.421875 15.453125 -0.5625 
Q 10.6875 0.296875 5.421875 2 
L 5.421875 11.28125 
Q 10.40625 8.6875 15.234375 7.390625 
Q 20.0625 6.109375 24.8125 6.109375 
Q 31.15625 6.109375 34.5625 8.28125 
Q 37.984375 10.453125 37.984375 14.40625 
Q 37.984375 18.0625 35.515625 20.015625 
Q 33.0625 21.96875 24.703125 23.78125 
L 21.578125 24.515625 
Q 13.234375 26.265625 9.515625 29.90625 
Q 5.8125 33.546875 5.8125 39.890625 
Q 5.8125 47.609375 11.28125 51.796875 
Q 16.75 56 26.8125 56 
Q 31.78125 56 36.171875 55.265625 
Q 40.578125 54.546875 44.28125 53.078125 
z
" id="DejaVuSans-115"/>
       <path d="M 30.609375 48.390625 
Q 23.390625 48.390625 19.1875 42.75 
Q 14.984375 37.109375 14.984375 27.296875 
Q 14.984375 17.484375 19.15625 11.84375 
Q 23.34375 6.203125 30.609375 6.203125 
Q 37.796875 6.203125 41.984375 11.859375 
Q 46.1875 17.53125 46.1875 27.296875 
Q 46.1875 37.015625 41.984375 42.703125 
Q 37.796875 48.390625 30.609375 48.390625 
z
M 30.609375 56 
Q 42.328125 56 49.015625 48.375 
Q 55.71875 40.765625 55.71875 27.296875 
Q 55.71875 13.875 49.015625 6.21875 
Q 42.328125 -1.421875 30.609375 -1.421875 
Q 18.84375 -1.421875 12.171875 6.21875 
Q 5.515625 13.875 5.515625 27.296875 
Q 5.515625 40.765625 12.171875 48.375 
Q 18.84375 56 30.609375 56 
z
" id="DejaVuSans-111"/>
       <path d="M 45.40625 46.390625 
L 45.40625 75.984375 
L 54.390625 75.984375 
L 54.390625 0 
L 45.40625 0 
L 45.40625 8.203125 
Q 42.578125 3.328125 38.25 0.953125 
Q 33.9375 -1.421875 27.875 -1.421875 
Q 17.96875 -1.421875 11.734375 6.484375 
Q 5.515625 14.40625 5.515625 27.296875 
Q 5.515625 40.1875 11.734375 48.09375 
Q 17.96875 56 27.875 56 
Q 33.9375 56 38.25 53.625 
Q 42.578125 51.265625 45.40625 46.390625 
z
M 14.796875 27.296875 
Q 14.796875 17.390625 18.875 11.75 
Q 22.953125 6.109375 30.078125 6.109375 
Q 37.203125 6.109375 41.296875 11.75 
Q 45.40625 17.390625 45.40625 27.296875 
Q 45.40625 37.203125 41.296875 42.84375 
Q 37.203125 48.484375 30.078125 48.484375 
Q 22.953125 48.484375 18.875 42.84375 
Q 14.796875 37.203125 14.796875 27.296875 
z
" id="DejaVuSans-100"/>
       <path d="M 56.203125 29.59375 
L 56.203125 25.203125 
L 14.890625 25.203125 
Q 15.484375 15.921875 20.484375 11.0625 
Q 25.484375 6.203125 34.421875 6.203125 
Q 39.59375 6.203125 44.453125 7.46875 
Q 49.3125 8.734375 54.109375 11.28125 
L 54.109375 2.78125 
Q 49.265625 0.734375 44.1875 -0.34375 
Q 39.109375 -1.421875 33.890625 -1.421875 
Q 20.796875 -1.421875 13.15625 6.1875 
Q 5.515625 13.8125 5.515625 26.8125 
Q 5.515625 40.234375 12.765625 48.109375 
Q 20.015625 56 32.328125 56 
Q 43.359375 56 49.78125 48.890625 
Q 56.203125 41.796875 56.203125 29.59375 
z
M 47.21875 32.234375 
Q 47.125 39.59375 43.09375 43.984375 
Q 39.0625 48.390625 32.421875 48.390625 
Q 24.90625 48.390625 20.390625 44.140625 
Q 15.875 39.890625 15.1875 32.171875 
z
" id="DejaVuSans-101"/>
      </defs>
      <use xlink:href="#DejaVuSans-69"/>
      <use x="63.183594" xlink:href="#DejaVuSans-112"/>
      <use x="126.660156" xlink:href="#DejaVuSans-105"/>
      <use x="154.443359" xlink:href="#DejaVuSans-115"/>
      <use x="206.542969" xlink:href="#DejaVuSans-111"/>
      <use x="267.724609" xlink:href="#DejaVuSans-100"/>
      <use x="331.201172" xlink:href="#DejaVuSans-101"/>
      <use x="392.724609" xlink:href="#DejaVuSans-115"/>
     </g>
    </g>
   </g>
   <g id="matplotlib.axis_2">
    <g id="ytick_1">
     <g id="line2d_19">
      <path clip-path="url(#pb9b6f01c83)" d="M 216 196.167273 
L 1555.2 196.167273 
" style="fill:none;stroke:#b0b0b0;stroke-linecap:square;stroke-width:0.8;"/>
     </g>
     <g id="line2d_20">
      <defs>
       <path d="M 0 0 
L -3.5 0 
" id="m764a7af24e" style="stroke:#000000;stroke-width:0.8;"/>
      </defs>
      <g>
       <use style="stroke:#000000;stroke-width:0.8;" x="216" xlink:href="#m764a7af24e" y="196.167273"/>
      </g>
     </g>
     <g id="text_11">
      <!-- 0 -->
      <g transform="translate(202.6375 199.966491)scale(0.1 -0.1)">
       <use xlink:href="#DejaVuSans-48"/>
      </g>
     </g>
    </g>
    <g id="ytick_2">
     <g id="line2d_21">
      <path clip-path="url(#pb9b6f01c83)" d="M 216 161.803636 
L 1555.2 161.803636 
" style="fill:none;stroke:#b0b0b0;stroke-linecap:square;stroke-width:0.8;"/>
     </g>
     <g id="line2d_22">
      <g>
       <use style="stroke:#000000;stroke-width:0.8;" x="216" xlink:href="#m764a7af24e" y="161.803636"/>
      </g>
     </g>
     <g id="text_12">
      <!-- 50 -->
      <g transform="translate(196.275 165.602855)scale(0.1 -0.1)">
       <use xlink:href="#DejaVuSans-53"/>
       <use x="63.623047" xlink:href="#DejaVuSans-48"/>
      </g>
     </g>
    </g>
    <g id="ytick_3">
     <g id="line2d_23">
      <path clip-path="url(#pb9b6f01c83)" d="M 216 127.44 
L 1555.2 127.44 
" style="fill:none;stroke:#b0b0b0;stroke-linecap:square;stroke-width:0.8;"/>
     </g>
     <g id="line2d_24">
      <g>
       <use style="stroke:#000000;stroke-width:0.8;" x="216" xlink:href="#m764a7af24e" y="127.44"/>
      </g>
     </g>
     <g id="text_13">
      <!-- 100 -->
      <g transform="translate(189.9125 131.239219)scale(0.1 -0.1)">
       <use xlink:href="#DejaVuSans-49"/>
       <use x="63.623047" xlink:href="#DejaVuSans-48"/>
       <use x="127.246094" xlink:href="#DejaVuSans-48"/>
      </g>
     </g>
    </g>
    <g id="ytick_4">
     <g id="line2d_25">
      <path clip-path="url(#pb9b6f01c83)" d="M 216 93.076364 
L 1555.2 93.076364 
" style="fill:none;stroke:#b0b0b0;stroke-linecap:square;stroke-width:0.8;"/>
     </g>
     <g id="line2d_26">
      <g>
       <use style="stroke:#000000;stroke-width:0.8;" x="216" xlink:href="#m764a7af24e" y="93.076364"/>
      </g>
     </g>
     <g id="text_14">
      <!-- 150 -->
      <g transform="translate(189.9125 96.875582)scale(0.1 -0.1)">
       <use xlink:href="#DejaVuSans-49"/>
       <use x="63.623047" xlink:href="#DejaVuSans-53"/>
       <use x="127.246094" xlink:href="#DejaVuSans-48"/>
      </g>
     </g>
    </g>
    <g id="ytick_5">
     <g id="line2d_27">
      <path clip-path="url(#pb9b6f01c83)" d="M 216 58.712727 
L 1555.2 58.712727 
" style="fill:none;stroke:#b0b0b0;stroke-linecap:square;stroke-width:0.8;"/>
     </g>
     <g id="line2d_28">
      <g>
       <use style="stroke:#000000;stroke-width:0.8;" x="216" xlink:href="#m764a7af24e" y="58.712727"/>
      </g>
     </g>
     <g id="text_15">
      <!-- 200 -->
      <g transform="translate(189.9125 62.511946)scale(0.1 -0.1)">
       <use xlink:href="#DejaVuSans-50"/>
       <use x="63.623047" xlink:href="#DejaVuSans-48"/>
       <use x="127.246094" xlink:href="#DejaVuSans-48"/>
      </g>
     </g>
    </g>
    <g id="text_16">
     <!-- Reward / Episode -->
     <g transform="translate(183.832812 170.561094)rotate(-90)scale(0.1 -0.1)">
      <defs>
       <path d="M 44.390625 34.1875 
Q 47.5625 33.109375 50.5625 29.59375 
Q 53.5625 26.078125 56.59375 19.921875 
L 66.609375 0 
L 56 0 
L 46.6875 18.703125 
Q 43.0625 26.03125 39.671875 28.421875 
Q 36.28125 30.8125 30.421875 30.8125 
L 19.671875 30.8125 
L 19.671875 0 
L 9.8125 0 
L 9.8125 72.90625 
L 32.078125 72.90625 
Q 44.578125 72.90625 50.734375 67.671875 
Q 56.890625 62.453125 56.890625 51.90625 
Q 56.890625 45.015625 53.6875 40.46875 
Q 50.484375 35.9375 44.390625 34.1875 
z
M 19.671875 64.796875 
L 19.671875 38.921875 
L 32.078125 38.921875 
Q 39.203125 38.921875 42.84375 42.21875 
Q 46.484375 45.515625 46.484375 51.90625 
Q 46.484375 58.296875 42.84375 61.546875 
Q 39.203125 64.796875 32.078125 64.796875 
z
" id="DejaVuSans-82"/>
       <path d="M 4.203125 54.6875 
L 13.1875 54.6875 
L 24.421875 12.015625 
L 35.59375 54.6875 
L 46.1875 54.6875 
L 57.421875 12.015625 
L 68.609375 54.6875 
L 77.59375 54.6875 
L 63.28125 0 
L 52.6875 0 
L 40.921875 44.828125 
L 29.109375 0 
L 18.5 0 
z
" id="DejaVuSans-119"/>
       <path d="M 34.28125 27.484375 
Q 23.390625 27.484375 19.1875 25 
Q 14.984375 22.515625 14.984375 16.5 
Q 14.984375 11.71875 18.140625 8.90625 
Q 21.296875 6.109375 26.703125 6.109375 
Q 34.1875 6.109375 38.703125 11.40625 
Q 43.21875 16.703125 43.21875 25.484375 
L 43.21875 27.484375 
z
M 52.203125 31.203125 
L 52.203125 0 
L 43.21875 0 
L 43.21875 8.296875 
Q 40.140625 3.328125 35.546875 0.953125 
Q 30.953125 -1.421875 24.3125 -1.421875 
Q 15.921875 -1.421875 10.953125 3.296875 
Q 6 8.015625 6 15.921875 
Q 6 25.140625 12.171875 29.828125 
Q 18.359375 34.515625 30.609375 34.515625 
L 43.21875 34.515625 
L 43.21875 35.40625 
Q 43.21875 41.609375 39.140625 45 
Q 35.0625 48.390625 27.6875 48.390625 
Q 23 48.390625 18.546875 47.265625 
Q 14.109375 46.140625 10.015625 43.890625 
L 10.015625 52.203125 
Q 14.9375 54.109375 19.578125 55.046875 
Q 24.21875 56 28.609375 56 
Q 40.484375 56 46.34375 49.84375 
Q 52.203125 43.703125 52.203125 31.203125 
z
" id="DejaVuSans-97"/>
       <path d="M 41.109375 46.296875 
Q 39.59375 47.171875 37.8125 47.578125 
Q 36.03125 48 33.890625 48 
Q 26.265625 48 22.1875 43.046875 
Q 18.109375 38.09375 18.109375 28.8125 
L 18.109375 0 
L 9.078125 0 
L 9.078125 54.6875 
L 18.109375 54.6875 
L 18.109375 46.1875 
Q 20.953125 51.171875 25.484375 53.578125 
Q 30.03125 56 36.53125 56 
Q 37.453125 56 38.578125 55.875 
Q 39.703125 55.765625 41.0625 55.515625 
z
" id="DejaVuSans-114"/>
       <path id="DejaVuSans-32"/>
       <path d="M 25.390625 72.90625 
L 33.6875 72.90625 
L 8.296875 -9.28125 
L 0 -9.28125 
z
" id="DejaVuSans-47"/>
      </defs>
      <use xlink:href="#DejaVuSans-82"/>
      <use x="64.982422" xlink:href="#DejaVuSans-101"/>
      <use x="126.505859" xlink:href="#DejaVuSans-119"/>
      <use x="208.292969" xlink:href="#DejaVuSans-97"/>
      <use x="269.572266" xlink:href="#DejaVuSans-114"/>
      <use x="308.935547" xlink:href="#DejaVuSans-100"/>
      <use x="372.412109" xlink:href="#DejaVuSans-32"/>
      <use x="404.199219" xlink:href="#DejaVuSans-47"/>
      <use x="437.890625" xlink:href="#DejaVuSans-32"/>
      <use x="469.677734" xlink:href="#DejaVuSans-69"/>
      <use x="532.861328" xlink:href="#DejaVuSans-112"/>
      <use x="596.337891" xlink:href="#DejaVuSans-105"/>
      <use x="624.121094" xlink:href="#DejaVuSans-115"/>
      <use x="676.220703" xlink:href="#DejaVuSans-111"/>
      <use x="737.402344" xlink:href="#DejaVuSans-100"/>
      <use x="800.878906" xlink:href="#DejaVuSans-101"/>
     </g>
    </g>
   </g>
   <g id="line2d_29">
    <path clip-path="url(#pb9b6f01c83)" d="M 276.872727 182.421818 
L 279.916364 181.734545 
L 282.96 188.607273 
L 286.003636 182.421818 
L 289.047273 187.92 
L 292.090909 188.607273 
L 295.134545 186.545455 
L 298.178182 174.174545 
L 301.221818 174.174545 
L 304.265455 175.549091 
L 307.309091 185.858182 
L 310.352727 145.309091 
L 313.396364 176.236364 
L 316.44 167.301818 
L 319.483636 180.36 
L 322.527273 176.236364 
L 325.570909 167.301818 
L 328.614545 174.861818 
L 331.658182 163.178182 
L 334.701818 173.487273 
L 337.745455 173.487273 
L 340.789091 165.24 
L 343.832727 157.68 
L 346.876364 181.047273 
L 349.92 155.618182 
L 352.963636 159.741818 
L 356.007273 176.923636 
L 359.050909 176.236364 
L 362.094545 174.174545 
L 365.138182 125.378182 
L 368.181818 167.989091 
L 371.225455 177.610909 
L 374.269091 179.672727 
L 377.312727 126.752727 
L 380.356364 145.309091 
L 383.4 159.741818 
L 386.443636 184.483636 
L 389.487273 162.490909 
L 392.530909 184.483636 
L 395.574545 161.116364 
L 398.618182 172.8 
L 401.661818 183.796364 
L 404.705455 179.672727 
L 407.749091 166.614545 
L 410.792727 150.807273 
L 413.836364 157.68 
L 416.88 124.690909 
L 419.923636 184.483636 
L 422.967273 99.949091 
L 426.010909 176.923636 
L 429.054545 172.8 
L 432.098182 176.236364 
L 435.141818 172.112727 
L 438.185455 125.378182 
L 441.229091 178.985455 
L 444.272727 135 
L 447.316364 125.378182 
L 450.36 162.490909 
L 453.403636 140.498182 
L 456.447273 144.621818 
L 459.490909 171.425455 
L 462.534545 153.556364 
L 465.578182 122.629091 
L 468.621818 144.621818 
L 471.665455 134.312727 
L 474.709091 177.610909 
L 477.752727 151.494545 
L 480.796364 143.934545 
L 483.84 161.116364 
L 486.883636 155.618182 
L 489.927273 77.956364 
L 492.970909 115.756364 
L 496.014545 120.567273 
L 499.058182 126.752727 
L 502.101818 175.549091 
L 505.145455 172.112727 
L 508.189091 185.170909 
L 511.232727 160.429091 
L 514.276364 151.494545 
L 517.32 69.021818 
L 520.363636 125.378182 
L 523.407273 92.389091 
L 526.450909 156.992727 
L 529.494545 146.683636 
L 532.538182 58.712727 
L 535.581818 119.192727 
L 538.625455 173.487273 
L 541.669091 173.487273 
L 544.712727 165.24 
L 547.756364 58.712727 
L 550.8 93.076364 
L 553.843636 58.712727 
L 556.887273 149.432727 
L 559.930909 128.127273 
L 562.974545 86.203636 
L 566.018182 160.429091 
L 569.061818 145.996364 
L 572.105455 145.996364 
L 575.149091 153.556364 
L 578.192727 145.996364 
L 581.236364 124.003636 
L 587.323636 58.712727 
L 590.367273 117.130909 
L 593.410909 129.501818 
L 596.454545 111.632727 
L 599.498182 129.501818 
L 602.541818 58.712727 
L 605.585455 152.869091 
L 608.629091 83.454545 
L 611.672727 176.236364 
L 614.716364 154.930909 
L 617.76 184.483636 
L 620.803636 94.450909 
L 623.847273 93.076364 
L 626.890909 111.632727 
L 629.934545 175.549091 
L 632.978182 163.178182 
L 636.021818 163.865455 
L 639.065455 119.88 
L 642.109091 119.192727 
L 645.152727 58.712727 
L 648.196364 155.618182 
L 651.24 112.32 
L 654.283636 58.712727 
L 657.327273 66.272727 
L 660.370909 58.712727 
L 663.414545 141.185455 
L 666.458182 58.712727 
L 669.501818 58.712727 
L 672.545455 104.76 
L 675.589091 58.712727 
L 678.632727 144.621818 
L 681.676364 118.505455 
L 684.72 58.712727 
L 687.763636 58.712727 
L 690.807273 106.821818 
L 693.850909 58.712727 
L 696.894545 139.810909 
L 699.938182 76.581818 
L 702.981818 116.443636 
L 706.025455 58.712727 
L 709.069091 87.578182 
L 712.112727 61.461818 
L 715.156364 157.68 
L 718.2 88.952727 
L 721.243636 99.261818 
L 724.287273 58.712727 
L 727.330909 58.712727 
L 730.374545 105.447273 
L 733.418182 58.712727 
L 742.549091 58.712727 
L 745.592727 101.323636 
L 748.636364 98.574545 
L 751.68 94.450909 
L 754.723636 114.381818 
L 757.767273 115.756364 
L 760.810909 136.374545 
L 763.854545 60.087273 
L 766.898182 58.712727 
L 772.985455 58.712727 
L 776.029091 139.123636 
L 779.072727 58.712727 
L 800.378182 58.712727 
L 803.421818 144.621818 
L 806.465455 58.712727 
L 836.901818 58.712727 
L 839.945455 75.894545 
L 842.989091 71.083636 
L 846.032727 58.712727 
L 849.076364 80.705455 
L 852.12 73.832727 
L 855.163636 58.712727 
L 861.250909 58.712727 
L 864.294545 149.432727 
L 867.338182 124.003636 
L 870.381818 58.712727 
L 900.818182 58.712727 
L 903.861818 183.796364 
L 906.905455 62.836364 
L 909.949091 58.712727 
L 912.992727 113.694545 
L 916.036364 58.712727 
L 919.08 58.712727 
L 922.123636 93.763636 
L 925.167273 58.712727 
L 937.341818 58.712727 
L 940.385455 124.690909 
L 943.429091 58.712727 
L 946.472727 113.007273 
L 949.516364 58.712727 
L 952.56 116.443636 
L 955.603636 58.712727 
L 958.647273 58.712727 
L 961.690909 85.516364 
L 964.734545 58.712727 
L 1040.825455 58.712727 
L 1043.869091 74.52 
L 1046.912727 76.581818 
L 1049.956364 58.712727 
L 1074.305455 58.712727 
L 1077.349091 87.578182 
L 1080.392727 58.712727 
L 1095.610909 58.712727 
L 1098.654545 91.701818 
L 1101.698182 58.712727 
L 1104.741818 58.712727 
L 1107.785455 119.192727 
L 1110.829091 58.712727 
L 1119.96 58.712727 
L 1123.003636 75.894545 
L 1126.047273 58.712727 
L 1129.090909 102.698182 
L 1132.134545 109.570909 
L 1135.178182 153.556364 
L 1138.221818 58.712727 
L 1153.44 58.712727 
L 1156.483636 104.76 
L 1159.527273 85.516364 
L 1162.570909 58.712727 
L 1165.614545 58.712727 
L 1168.658182 112.32 
L 1171.701818 58.712727 
L 1183.876364 58.712727 
L 1186.92 65.585455 
L 1189.963636 58.712727 
L 1217.356364 58.712727 
L 1220.4 128.127273 
L 1223.443636 58.712727 
L 1226.487273 58.712727 
L 1229.530909 59.4 
L 1232.574545 81.392727 
L 1235.618182 58.712727 
L 1238.661818 58.712727 
L 1241.705455 79.330909 
L 1244.749091 58.712727 
L 1250.836364 58.712727 
L 1253.88 68.334545 
L 1256.923636 75.207273 
L 1259.967273 58.712727 
L 1263.010909 59.4 
L 1266.054545 58.712727 
L 1269.098182 58.712727 
L 1275.185455 108.883636 
L 1278.229091 58.712727 
L 1281.272727 108.883636 
L 1284.316364 114.381818 
L 1287.36 107.509091 
L 1290.403636 89.64 
L 1293.447273 85.516364 
L 1296.490909 128.814545 
L 1299.534545 58.712727 
L 1302.578182 58.712727 
L 1305.621818 63.523636 
L 1308.665455 84.829091 
L 1311.709091 58.712727 
L 1323.883636 58.712727 
L 1326.927273 74.52 
L 1329.970909 58.712727 
L 1333.014545 58.712727 
L 1336.058182 63.523636 
L 1339.101818 58.712727 
L 1348.232727 58.712727 
L 1351.276364 66.96 
L 1354.32 58.712727 
L 1366.494545 58.712727 
L 1369.538182 65.585455 
L 1372.581818 58.712727 
L 1375.625455 75.207273 
L 1378.669091 58.712727 
L 1381.712727 84.141818 
L 1384.756364 88.952727 
L 1387.8 58.712727 
L 1393.887273 58.712727 
L 1396.930909 66.272727 
L 1399.974545 85.516364 
L 1403.018182 78.643636 
L 1406.061818 73.832727 
L 1409.105455 102.698182 
L 1412.149091 58.712727 
L 1415.192727 81.392727 
L 1418.236364 98.574545 
L 1421.28 109.570909 
L 1424.323636 70.396364 
L 1427.367273 69.709091 
L 1430.410909 117.818182 
L 1433.454545 74.52 
L 1436.498182 97.2 
L 1439.541818 58.712727 
L 1442.585455 80.705455 
L 1445.629091 85.516364 
L 1448.672727 58.712727 
L 1451.716364 64.898182 
L 1454.76 66.272727 
L 1457.803636 62.149091 
L 1460.847273 94.450909 
L 1463.890909 58.712727 
L 1466.934545 93.763636 
L 1469.978182 58.712727 
L 1476.065455 58.712727 
L 1479.109091 74.52 
L 1482.152727 76.581818 
L 1485.196364 58.712727 
L 1488.24 68.334545 
L 1491.283636 58.712727 
L 1491.283636 58.712727 
" style="fill:none;stroke:#0000ff;stroke-linecap:square;stroke-width:1.5;"/>
   </g>
   <g id="line2d_30">
    <path clip-path="url(#pb9b6f01c83)" d="M 276.872727 196.167273 
L 337.745455 176.923636 
L 398.618182 164.552727 
L 459.490909 156.305455 
L 520.363636 143.247273 
L 581.236364 126.752727 
L 642.109091 124.690909 
L 702.981818 91.014545 
L 763.854545 89.64 
L 824.727273 66.96 
L 885.6 69.709091 
L 946.472727 73.145455 
L 1007.345455 65.585455 
L 1068.218182 60.087273 
L 1129.090909 65.585455 
L 1189.963636 75.207273 
L 1250.836364 64.210909 
L 1311.709091 79.330909 
L 1372.581818 60.774545 
L 1433.454545 77.956364 
L 1494.327273 70.396364 
" style="fill:none;stroke:#ff0000;stroke-linecap:square;stroke-width:1.5;"/>
   </g>
   <g id="patch_3">
    <path d="M 216 203.04 
L 216 51.84 
" style="fill:none;stroke:#000000;stroke-linecap:square;stroke-linejoin:miter;stroke-width:0.8;"/>
   </g>
   <g id="patch_4">
    <path d="M 1555.2 203.04 
L 1555.2 51.84 
" style="fill:none;stroke:#000000;stroke-linecap:square;stroke-linejoin:miter;stroke-width:0.8;"/>
   </g>
   <g id="patch_5">
    <path d="M 216 203.04 
L 1555.2 203.04 
" style="fill:none;stroke:#000000;stroke-linecap:square;stroke-linejoin:miter;stroke-width:0.8;"/>
   </g>
   <g id="patch_6">
    <path d="M 216 51.84 
L 1555.2 51.84 
" style="fill:none;stroke:#000000;stroke-linecap:square;stroke-linejoin:miter;stroke-width:0.8;"/>
   </g>
  </g>
  <g id="axes_2">
   <g id="patch_7">
    <path d="M 216 384.48 
L 1555.2 384.48 
L 1555.2 233.28 
L 216 233.28 
z
" style="fill:#ffffff;"/>
   </g>
   <g id="matplotlib.axis_3">
    <g id="xtick_10">
     <g id="line2d_31">
      <path clip-path="url(#p529a9634b0)" d="M 276.872727 384.48 
L 276.872727 233.28 
" style="fill:none;stroke:#b0b0b0;stroke-linecap:square;stroke-width:0.8;"/>
     </g>
     <g id="line2d_32">
      <g>
       <use style="stroke:#000000;stroke-width:0.8;" x="276.872727" xlink:href="#m80863e29b1" y="384.48"/>
      </g>
     </g>
     <g id="text_17">
      <!-- 0 -->
      <g transform="translate(273.691477 399.078438)scale(0.1 -0.1)">
       <use xlink:href="#DejaVuSans-48"/>
      </g>
     </g>
    </g>
    <g id="xtick_11">
     <g id="line2d_33">
      <path clip-path="url(#p529a9634b0)" d="M 429.435954 384.48 
L 429.435954 233.28 
" style="fill:none;stroke:#b0b0b0;stroke-linecap:square;stroke-width:0.8;"/>
     </g>
     <g id="line2d_34">
      <g>
       <use style="stroke:#000000;stroke-width:0.8;" x="429.435954" xlink:href="#m80863e29b1" y="384.48"/>
      </g>
     </g>
     <g id="text_18">
      <!-- 50 -->
      <g transform="translate(423.073454 399.078438)scale(0.1 -0.1)">
       <use xlink:href="#DejaVuSans-53"/>
       <use x="63.623047" xlink:href="#DejaVuSans-48"/>
      </g>
     </g>
    </g>
    <g id="xtick_12">
     <g id="line2d_35">
      <path clip-path="url(#p529a9634b0)" d="M 581.99918 384.48 
L 581.99918 233.28 
" style="fill:none;stroke:#b0b0b0;stroke-linecap:square;stroke-width:0.8;"/>
     </g>
     <g id="line2d_36">
      <g>
       <use style="stroke:#000000;stroke-width:0.8;" x="581.99918" xlink:href="#m80863e29b1" y="384.48"/>
      </g>
     </g>
     <g id="text_19">
      <!-- 100 -->
      <g transform="translate(572.45543 399.078438)scale(0.1 -0.1)">
       <use xlink:href="#DejaVuSans-49"/>
       <use x="63.623047" xlink:href="#DejaVuSans-48"/>
       <use x="127.246094" xlink:href="#DejaVuSans-48"/>
      </g>
     </g>
    </g>
    <g id="xtick_13">
     <g id="line2d_37">
      <path clip-path="url(#p529a9634b0)" d="M 734.562406 384.48 
L 734.562406 233.28 
" style="fill:none;stroke:#b0b0b0;stroke-linecap:square;stroke-width:0.8;"/>
     </g>
     <g id="line2d_38">
      <g>
       <use style="stroke:#000000;stroke-width:0.8;" x="734.562406" xlink:href="#m80863e29b1" y="384.48"/>
      </g>
     </g>
     <g id="text_20">
      <!-- 150 -->
      <g transform="translate(725.018656 399.078438)scale(0.1 -0.1)">
       <use xlink:href="#DejaVuSans-49"/>
       <use x="63.623047" xlink:href="#DejaVuSans-53"/>
       <use x="127.246094" xlink:href="#DejaVuSans-48"/>
      </g>
     </g>
    </g>
    <g id="xtick_14">
     <g id="line2d_39">
      <path clip-path="url(#p529a9634b0)" d="M 887.125632 384.48 
L 887.125632 233.28 
" style="fill:none;stroke:#b0b0b0;stroke-linecap:square;stroke-width:0.8;"/>
     </g>
     <g id="line2d_40">
      <g>
       <use style="stroke:#000000;stroke-width:0.8;" x="887.125632" xlink:href="#m80863e29b1" y="384.48"/>
      </g>
     </g>
     <g id="text_21">
      <!-- 200 -->
      <g transform="translate(877.581882 399.078438)scale(0.1 -0.1)">
       <use xlink:href="#DejaVuSans-50"/>
       <use x="63.623047" xlink:href="#DejaVuSans-48"/>
       <use x="127.246094" xlink:href="#DejaVuSans-48"/>
      </g>
     </g>
    </g>
    <g id="xtick_15">
     <g id="line2d_41">
      <path clip-path="url(#p529a9634b0)" d="M 1039.688859 384.48 
L 1039.688859 233.28 
" style="fill:none;stroke:#b0b0b0;stroke-linecap:square;stroke-width:0.8;"/>
     </g>
     <g id="line2d_42">
      <g>
       <use style="stroke:#000000;stroke-width:0.8;" x="1039.688859" xlink:href="#m80863e29b1" y="384.48"/>
      </g>
     </g>
     <g id="text_22">
      <!-- 250 -->
      <g transform="translate(1030.145109 399.078438)scale(0.1 -0.1)">
       <use xlink:href="#DejaVuSans-50"/>
       <use x="63.623047" xlink:href="#DejaVuSans-53"/>
       <use x="127.246094" xlink:href="#DejaVuSans-48"/>
      </g>
     </g>
    </g>
    <g id="xtick_16">
     <g id="line2d_43">
      <path clip-path="url(#p529a9634b0)" d="M 1192.252085 384.48 
L 1192.252085 233.28 
" style="fill:none;stroke:#b0b0b0;stroke-linecap:square;stroke-width:0.8;"/>
     </g>
     <g id="line2d_44">
      <g>
       <use style="stroke:#000000;stroke-width:0.8;" x="1192.252085" xlink:href="#m80863e29b1" y="384.48"/>
      </g>
     </g>
     <g id="text_23">
      <!-- 300 -->
      <g transform="translate(1182.708335 399.078438)scale(0.1 -0.1)">
       <use xlink:href="#DejaVuSans-51"/>
       <use x="63.623047" xlink:href="#DejaVuSans-48"/>
       <use x="127.246094" xlink:href="#DejaVuSans-48"/>
      </g>
     </g>
    </g>
    <g id="xtick_17">
     <g id="line2d_45">
      <path clip-path="url(#p529a9634b0)" d="M 1344.815311 384.48 
L 1344.815311 233.28 
" style="fill:none;stroke:#b0b0b0;stroke-linecap:square;stroke-width:0.8;"/>
     </g>
     <g id="line2d_46">
      <g>
       <use style="stroke:#000000;stroke-width:0.8;" x="1344.815311" xlink:href="#m80863e29b1" y="384.48"/>
      </g>
     </g>
     <g id="text_24">
      <!-- 350 -->
      <g transform="translate(1335.271561 399.078438)scale(0.1 -0.1)">
       <use xlink:href="#DejaVuSans-51"/>
       <use x="63.623047" xlink:href="#DejaVuSans-53"/>
       <use x="127.246094" xlink:href="#DejaVuSans-48"/>
      </g>
     </g>
    </g>
    <g id="xtick_18">
     <g id="line2d_47">
      <path clip-path="url(#p529a9634b0)" d="M 1497.378537 384.48 
L 1497.378537 233.28 
" style="fill:none;stroke:#b0b0b0;stroke-linecap:square;stroke-width:0.8;"/>
     </g>
     <g id="line2d_48">
      <g>
       <use style="stroke:#000000;stroke-width:0.8;" x="1497.378537" xlink:href="#m80863e29b1" y="384.48"/>
      </g>
     </g>
     <g id="text_25">
      <!-- 400 -->
      <g transform="translate(1487.834787 399.078438)scale(0.1 -0.1)">
       <use xlink:href="#DejaVuSans-52"/>
       <use x="63.623047" xlink:href="#DejaVuSans-48"/>
       <use x="127.246094" xlink:href="#DejaVuSans-48"/>
      </g>
     </g>
    </g>
    <g id="text_26">
     <!-- Episodes -->
     <g transform="translate(863.357813 412.756563)scale(0.1 -0.1)">
      <use xlink:href="#DejaVuSans-69"/>
      <use x="63.183594" xlink:href="#DejaVuSans-112"/>
      <use x="126.660156" xlink:href="#DejaVuSans-105"/>
      <use x="154.443359" xlink:href="#DejaVuSans-115"/>
      <use x="206.542969" xlink:href="#DejaVuSans-111"/>
      <use x="267.724609" xlink:href="#DejaVuSans-100"/>
      <use x="331.201172" xlink:href="#DejaVuSans-101"/>
      <use x="392.724609" xlink:href="#DejaVuSans-115"/>
     </g>
    </g>
   </g>
   <g id="matplotlib.axis_4">
    <g id="ytick_6">
     <g id="line2d_49">
      <path clip-path="url(#p529a9634b0)" d="M 216 372.18199 
L 1555.2 372.18199 
" style="fill:none;stroke:#b0b0b0;stroke-linecap:square;stroke-width:0.8;"/>
     </g>
     <g id="line2d_50">
      <g>
       <use style="stroke:#000000;stroke-width:0.8;" x="216" xlink:href="#m764a7af24e" y="372.18199"/>
      </g>
     </g>
     <g id="text_27">
      <!-- 0 -->
      <g transform="translate(202.6375 375.981209)scale(0.1 -0.1)">
       <use xlink:href="#DejaVuSans-48"/>
      </g>
     </g>
    </g>
    <g id="ytick_7">
     <g id="line2d_51">
      <path clip-path="url(#p529a9634b0)" d="M 216 329.210013 
L 1555.2 329.210013 
" style="fill:none;stroke:#b0b0b0;stroke-linecap:square;stroke-width:0.8;"/>
     </g>
     <g id="line2d_52">
      <g>
       <use style="stroke:#000000;stroke-width:0.8;" x="216" xlink:href="#m764a7af24e" y="329.210013"/>
      </g>
     </g>
     <g id="text_28">
      <!-- 100 -->
      <g transform="translate(189.9125 333.009231)scale(0.1 -0.1)">
       <use xlink:href="#DejaVuSans-49"/>
       <use x="63.623047" xlink:href="#DejaVuSans-48"/>
       <use x="127.246094" xlink:href="#DejaVuSans-48"/>
      </g>
     </g>
    </g>
    <g id="ytick_8">
     <g id="line2d_53">
      <path clip-path="url(#p529a9634b0)" d="M 216 286.238035 
L 1555.2 286.238035 
" style="fill:none;stroke:#b0b0b0;stroke-linecap:square;stroke-width:0.8;"/>
     </g>
     <g id="line2d_54">
      <g>
       <use style="stroke:#000000;stroke-width:0.8;" x="216" xlink:href="#m764a7af24e" y="286.238035"/>
      </g>
     </g>
     <g id="text_29">
      <!-- 200 -->
      <g transform="translate(189.9125 290.037254)scale(0.1 -0.1)">
       <use xlink:href="#DejaVuSans-50"/>
       <use x="63.623047" xlink:href="#DejaVuSans-48"/>
       <use x="127.246094" xlink:href="#DejaVuSans-48"/>
      </g>
     </g>
    </g>
    <g id="ytick_9">
     <g id="line2d_55">
      <path clip-path="url(#p529a9634b0)" d="M 216 243.266058 
L 1555.2 243.266058 
" style="fill:none;stroke:#b0b0b0;stroke-linecap:square;stroke-width:0.8;"/>
     </g>
     <g id="line2d_56">
      <g>
       <use style="stroke:#000000;stroke-width:0.8;" x="216" xlink:href="#m764a7af24e" y="243.266058"/>
      </g>
     </g>
     <g id="text_30">
      <!-- 300 -->
      <g transform="translate(189.9125 247.065277)scale(0.1 -0.1)">
       <use xlink:href="#DejaVuSans-51"/>
       <use x="63.623047" xlink:href="#DejaVuSans-48"/>
       <use x="127.246094" xlink:href="#DejaVuSans-48"/>
      </g>
     </g>
    </g>
    <g id="text_31">
     <!-- Loss / Episode -->
     <g transform="translate(183.832812 344.347188)rotate(-90)scale(0.1 -0.1)">
      <defs>
       <path d="M 9.8125 72.90625 
L 19.671875 72.90625 
L 19.671875 8.296875 
L 55.171875 8.296875 
L 55.171875 0 
L 9.8125 0 
z
" id="DejaVuSans-76"/>
      </defs>
      <use xlink:href="#DejaVuSans-76"/>
      <use x="53.962891" xlink:href="#DejaVuSans-111"/>
      <use x="115.144531" xlink:href="#DejaVuSans-115"/>
      <use x="167.244141" xlink:href="#DejaVuSans-115"/>
      <use x="219.34375" xlink:href="#DejaVuSans-32"/>
      <use x="251.130859" xlink:href="#DejaVuSans-47"/>
      <use x="284.822266" xlink:href="#DejaVuSans-32"/>
      <use x="316.609375" xlink:href="#DejaVuSans-69"/>
      <use x="379.792969" xlink:href="#DejaVuSans-112"/>
      <use x="443.269531" xlink:href="#DejaVuSans-105"/>
      <use x="471.052734" xlink:href="#DejaVuSans-115"/>
      <use x="523.152344" xlink:href="#DejaVuSans-111"/>
      <use x="584.333984" xlink:href="#DejaVuSans-100"/>
      <use x="647.810547" xlink:href="#DejaVuSans-101"/>
     </g>
    </g>
   </g>
   <g id="line2d_57">
    <path clip-path="url(#p529a9634b0)" d="M 276.872727 367.842779 
L 279.923992 367.776391 
L 282.975256 370.01109 
L 286.026521 368.237232 
L 292.12905 370.309578 
L 295.180314 369.268967 
L 298.231579 366.349296 
L 301.282843 366.337185 
L 304.334108 366.532492 
L 307.385373 369.265526 
L 310.436637 359.058076 
L 313.487902 366.19457 
L 316.539166 363.8532 
L 319.590431 367.25375 
L 325.69296 366.028269 
L 328.744224 365.17291 
L 331.795489 362.818261 
L 334.846753 366.49312 
L 337.898018 364.532761 
L 340.949282 362.757752 
L 344.000547 361.677857 
L 347.051811 366.122164 
L 350.103076 360.361756 
L 353.15434 361.704228 
L 356.205605 367.09049 
L 359.256869 364.551192 
L 362.308134 368.020328 
L 365.359398 354.600753 
L 368.410663 365.552735 
L 371.461928 369.310949 
L 374.513192 365.936087 
L 377.564457 355.663041 
L 380.615721 360.240812 
L 383.666986 362.116943 
L 386.71825 369.051256 
L 389.769515 364.121791 
L 392.820779 369.073044 
L 395.872044 363.976148 
L 398.923308 367.590212 
L 401.974573 366.613871 
L 405.025837 366.406286 
L 408.077102 365.011883 
L 411.128366 361.486999 
L 414.179631 362.556525 
L 417.230895 355.391065 
L 420.28216 370.117155 
L 423.333424 349.755176 
L 426.384689 369.051005 
L 429.435954 366.157741 
L 432.487218 367.546064 
L 435.538483 366.504656 
L 438.589747 354.732732 
L 441.641012 370.23468 
L 444.692276 362.546338 
L 447.743541 355.439341 
L 450.794805 365.59384 
L 453.84607 360.168085 
L 456.897334 362.162019 
L 459.948599 367.231911 
L 462.999863 366.839729 
L 466.051128 353.077397 
L 469.102392 364.282161 
L 472.153657 362.620065 
L 475.204921 368.336977 
L 478.256186 367.12275 
L 481.30745 361.792397 
L 484.358715 366.997285 
L 487.409979 367.821452 
L 490.461244 362.814004 
L 493.512509 365.281008 
L 496.563773 356.192277 
L 499.615038 296.263772 
L 502.666302 367.926348 
L 505.717567 369.357167 
L 508.768831 369.414308 
L 511.820096 367.283395 
L 514.87136 368.587451 
L 517.922625 308.833974 
L 520.973889 342.42945 
L 524.025154 360.111563 
L 527.076418 367.815938 
L 530.127683 369.449335 
L 533.178947 340.511615 
L 536.230212 355.499351 
L 539.281476 371.937187 
L 542.332741 369.418648 
L 545.384005 368.12029 
L 548.43527 357.20884 
L 551.486535 359.523334 
L 554.537799 350.087223 
L 557.589064 370.643651 
L 560.640328 367.523726 
L 563.691593 361.548514 
L 566.742857 369.929318 
L 569.794122 367.82927 
L 572.845386 367.115413 
L 575.896651 369.615445 
L 578.947915 367.724301 
L 581.99918 365.413034 
L 585.050444 358.970233 
L 588.101709 356.802186 
L 591.152973 364.235481 
L 594.204238 361.488535 
L 597.255502 363.505494 
L 600.306767 365.773888 
L 603.358031 328.111252 
L 606.409296 361.415412 
L 609.46056 339.444685 
L 612.511825 368.595484 
L 615.56309 367.346841 
L 618.614354 371.877043 
L 621.665619 333.405134 
L 624.716883 354.442006 
L 627.768148 366.544333 
L 630.819412 370.60514 
L 633.870677 369.395116 
L 636.921941 368.362726 
L 639.973206 345.058637 
L 643.02447 361.649461 
L 646.075735 361.667928 
L 649.126999 369.974681 
L 652.178264 361.244967 
L 655.229528 347.327592 
L 658.280793 357.256603 
L 661.332057 364.247482 
L 664.383322 370.362485 
L 667.434586 362.954486 
L 670.485851 308.34309 
L 673.537116 371.229901 
L 676.58838 371.592775 
L 679.639645 371.362289 
L 682.690909 372.363152 
L 685.742174 358.457953 
L 688.793438 361.040246 
L 691.844703 352.936336 
L 694.895967 368.261468 
L 697.947232 371.964409 
L 700.998496 372.271464 
L 704.049761 365.260476 
L 707.101025 360.628824 
L 710.15229 326.25127 
L 713.203554 348.686844 
L 716.254819 372.3681 
L 719.306083 370.892542 
L 722.357348 359.891643 
L 725.408612 367.920939 
L 728.459877 364.857624 
L 731.511141 369.685875 
L 734.562406 356.885957 
L 737.613671 357.581352 
L 740.664935 350.820198 
L 743.7162 363.278161 
L 746.767464 353.192277 
L 749.818729 354.340843 
L 752.869993 368.597749 
L 755.921258 368.503308 
L 758.972522 371.481255 
L 762.023787 370.40031 
L 765.075051 367.700575 
L 768.126316 342.35625 
L 771.17758 335.645666 
L 774.228845 354.07861 
L 777.280109 370.314786 
L 780.331374 343.683188 
L 783.382638 346.988911 
L 786.433903 360.927153 
L 789.485167 369.821999 
L 792.536432 327.404007 
L 795.587697 357.404314 
L 798.638961 350.227264 
L 801.690226 364.862083 
L 804.74149 373.506563 
L 807.792755 363.702241 
L 810.844019 362.979333 
L 813.895284 361.617202 
L 816.946548 356.292428 
L 819.997813 353.071312 
L 823.049077 357.344226 
L 826.100342 320.774366 
L 829.151606 358.775905 
L 832.202871 351.770052 
L 835.254135 355.645014 
L 838.3054 351.446398 
L 841.356664 337.23511 
L 844.407929 316.467421 
L 847.459193 355.162434 
L 850.510458 365.218565 
L 853.561722 349.554332 
L 856.612987 353.01972 
L 859.664252 362.627058 
L 862.715516 329.910825 
L 865.766781 367.127479 
L 868.818045 353.822115 
L 871.86931 336.039151 
L 874.920574 334.261269 
L 877.971839 357.583622 
L 881.023103 356.258727 
L 884.074368 361.150727 
L 887.125632 331.222928 
L 890.176897 349.067343 
L 893.228161 372.581274 
L 896.279426 240.152727 
L 899.33069 361.683923 
L 902.381955 362.103864 
L 905.433219 372.487411 
L 908.484484 357.140549 
L 911.535748 366.316451 
L 914.587013 342.421948 
L 917.638278 369.167022 
L 920.689542 315.996044 
L 923.740807 371.816276 
L 926.792071 361.39992 
L 929.843336 370.000827 
L 932.8946 362.761087 
L 935.945865 374.386939 
L 938.997129 359.649986 
L 942.048394 373.665747 
L 945.099658 360.905588 
L 948.150923 359.107861 
L 951.202187 361.105861 
L 954.253452 369.296235 
L 957.304716 361.973113 
L 960.355981 357.823035 
L 963.407245 341.873924 
L 966.45851 352.606656 
L 969.509774 299.565427 
L 972.561039 336.531838 
L 975.612303 356.820757 
L 978.663568 334.351615 
L 981.714833 319.529938 
L 984.766097 331.291107 
L 987.817362 338.478819 
L 990.868626 361.54628 
L 993.919891 346.354593 
L 996.971155 360.712708 
L 1000.02242 345.747364 
L 1003.073684 353.280777 
L 1006.124949 328.745157 
L 1009.176213 364.835375 
L 1012.227478 361.63178 
L 1015.278742 369.931431 
L 1018.330007 372.206847 
L 1021.381271 356.674107 
L 1024.432536 366.509195 
L 1027.4838 366.951987 
L 1030.535065 358.265716 
L 1033.586329 367.933374 
L 1036.637594 365.549362 
L 1039.688859 335.922207 
L 1042.740123 366.728334 
L 1045.791388 328.968751 
L 1048.842652 372.193001 
L 1051.893917 372.073549 
L 1054.945181 364.937144 
L 1057.996446 364.128597 
L 1061.04771 362.753024 
L 1064.098975 372.639219 
L 1067.150239 323.455498 
L 1070.201504 360.865609 
L 1073.252768 364.745743 
L 1076.304033 369.207201 
L 1079.355297 363.745481 
L 1082.406562 362.101869 
L 1085.457826 321.548394 
L 1088.509091 367.667728 
L 1091.560355 311.96057 
L 1094.61162 355.717194 
L 1097.662884 350.776439 
L 1100.714149 365.052838 
L 1103.765414 371.992505 
L 1106.816678 356.668766 
L 1109.867943 356.62536 
L 1112.919207 360.870937 
L 1115.970472 352.153664 
L 1119.021736 359.759932 
L 1122.073001 365.734358 
L 1125.124265 370.688931 
L 1128.17553 365.586342 
L 1131.226794 355.348803 
L 1134.278059 362.927018 
L 1137.329323 372.269873 
L 1140.380588 363.942469 
L 1143.431852 366.982094 
L 1146.483117 372.389215 
L 1149.534381 367.108611 
L 1152.585646 365.479051 
L 1155.63691 335.068856 
L 1158.688175 355.301921 
L 1161.73944 358.908193 
L 1167.841969 360.970888 
L 1170.893233 358.7389 
L 1173.944498 356.832022 
L 1176.995762 370.124875 
L 1180.047027 345.145229 
L 1183.098291 344.723098 
L 1186.149556 322.215513 
L 1189.20082 374.05133 
L 1192.252085 359.240625 
L 1195.303349 367.298307 
L 1198.354614 367.869924 
L 1201.405878 303.055116 
L 1204.457143 367.320054 
L 1207.508407 354.613777 
L 1210.559672 361.664229 
L 1213.610936 373.974405 
L 1216.662201 372.494011 
L 1219.713465 352.83334 
L 1222.76473 369.395371 
L 1225.815995 363.146797 
L 1228.867259 369.349148 
L 1231.918524 305.156288 
L 1234.969788 345.876986 
L 1238.021053 374.187196 
L 1241.072317 376.196457 
L 1244.123582 363.684192 
L 1247.174846 374.023233 
L 1250.226111 360.808179 
L 1253.277375 366.195175 
L 1256.32864 358.442626 
L 1259.379904 349.929053 
L 1262.431169 364.756031 
L 1265.482433 351.663568 
L 1268.533698 365.562428 
L 1271.584962 368.85838 
L 1274.636227 344.343881 
L 1277.687491 366.77091 
L 1280.738756 347.089256 
L 1283.790021 356.724409 
L 1286.841285 360.934631 
L 1289.89255 371.30625 
L 1292.943814 365.89196 
L 1295.995079 375.798314 
L 1299.046343 368.930103 
L 1302.097608 361.460068 
L 1305.148872 370.771316 
L 1308.200137 346.023694 
L 1311.251401 359.213376 
L 1314.302666 356.276221 
L 1317.35393 368.122564 
L 1320.405195 376.040476 
L 1323.456459 357.370221 
L 1326.507724 369.03613 
L 1329.558988 371.491965 
L 1332.610253 375.913382 
L 1335.661517 363.063578 
L 1338.712782 374.686289 
L 1341.764046 373.445821 
L 1344.815311 370.655786 
L 1347.866576 349.307515 
L 1350.91784 344.118157 
L 1353.969105 299.935458 
L 1357.020369 375.632411 
L 1360.071634 363.709827 
L 1363.122898 357.217794 
L 1366.174163 348.910846 
L 1369.225427 346.589619 
L 1372.276692 327.408738 
L 1375.327956 364.626608 
L 1378.379221 344.544568 
L 1381.430485 370.431333 
L 1384.48175 364.020869 
L 1387.533014 350.367425 
L 1390.584279 373.35566 
L 1393.635543 376.412606 
L 1396.686808 369.592435 
L 1399.738072 357.10399 
L 1402.789337 342.462825 
L 1405.840602 362.417252 
L 1408.891866 371.042945 
L 1411.943131 361.80499 
L 1414.994395 369.431751 
L 1418.04566 376.397172 
L 1421.096924 363.426314 
L 1424.148189 365.412578 
L 1427.199453 364.815444 
L 1430.250718 377.135011 
L 1433.301982 361.964826 
L 1436.353247 373.870356 
L 1439.404511 372.091715 
L 1442.455776 372.138606 
L 1445.50704 375.603153 
L 1448.558305 365.285041 
L 1451.609569 373.327187 
L 1454.660834 361.115718 
L 1457.712098 367.623304 
L 1460.763363 369.205762 
L 1463.814627 370.622875 
L 1466.865892 371.210781 
L 1469.917157 366.953164 
L 1472.968421 375.717516 
L 1476.019686 376.285504 
L 1479.07095 377.607273 
L 1482.122215 349.564707 
L 1485.173479 347.157485 
L 1488.224744 349.751985 
L 1491.276008 364.367894 
L 1494.327273 370.93084 
L 1494.327273 370.93084 
" style="fill:none;stroke:#ffa500;stroke-linecap:square;stroke-width:1.5;"/>
   </g>
   <g id="patch_8">
    <path d="M 216 384.48 
L 216 233.28 
" style="fill:none;stroke:#000000;stroke-linecap:square;stroke-linejoin:miter;stroke-width:0.8;"/>
   </g>
   <g id="patch_9">
    <path d="M 1555.2 384.48 
L 1555.2 233.28 
" style="fill:none;stroke:#000000;stroke-linecap:square;stroke-linejoin:miter;stroke-width:0.8;"/>
   </g>
   <g id="patch_10">
    <path d="M 216 384.48 
L 1555.2 384.48 
" style="fill:none;stroke:#000000;stroke-linecap:square;stroke-linejoin:miter;stroke-width:0.8;"/>
   </g>
   <g id="patch_11">
    <path d="M 216 233.28 
L 1555.2 233.28 
" style="fill:none;stroke:#000000;stroke-linecap:square;stroke-linejoin:miter;stroke-width:0.8;"/>
   </g>
  </g>
  <g id="text_32">
   <!-- CartPole A2C Result (Evaluate Reward: 200.0) -->
   <g transform="translate(726.265312 17.758125)scale(0.12 -0.12)">
    <defs>
     <path d="M 64.40625 67.28125 
L 64.40625 56.890625 
Q 59.421875 61.53125 53.78125 63.8125 
Q 48.140625 66.109375 41.796875 66.109375 
Q 29.296875 66.109375 22.65625 58.46875 
Q 16.015625 50.828125 16.015625 36.375 
Q 16.015625 21.96875 22.65625 14.328125 
Q 29.296875 6.6875 41.796875 6.6875 
Q 48.140625 6.6875 53.78125 8.984375 
Q 59.421875 11.28125 64.40625 15.921875 
L 64.40625 5.609375 
Q 59.234375 2.09375 53.4375 0.328125 
Q 47.65625 -1.421875 41.21875 -1.421875 
Q 24.65625 -1.421875 15.125 8.703125 
Q 5.609375 18.84375 5.609375 36.375 
Q 5.609375 53.953125 15.125 64.078125 
Q 24.65625 74.21875 41.21875 74.21875 
Q 47.75 74.21875 53.53125 72.484375 
Q 59.328125 70.75 64.40625 67.28125 
z
" id="DejaVuSans-67"/>
     <path d="M 18.3125 70.21875 
L 18.3125 54.6875 
L 36.8125 54.6875 
L 36.8125 47.703125 
L 18.3125 47.703125 
L 18.3125 18.015625 
Q 18.3125 11.328125 20.140625 9.421875 
Q 21.96875 7.515625 27.59375 7.515625 
L 36.8125 7.515625 
L 36.8125 0 
L 27.59375 0 
Q 17.1875 0 13.234375 3.875 
Q 9.28125 7.765625 9.28125 18.015625 
L 9.28125 47.703125 
L 2.6875 47.703125 
L 2.6875 54.6875 
L 9.28125 54.6875 
L 9.28125 70.21875 
z
" id="DejaVuSans-116"/>
     <path d="M 19.671875 64.796875 
L 19.671875 37.40625 
L 32.078125 37.40625 
Q 38.96875 37.40625 42.71875 40.96875 
Q 46.484375 44.53125 46.484375 51.125 
Q 46.484375 57.671875 42.71875 61.234375 
Q 38.96875 64.796875 32.078125 64.796875 
z
M 9.8125 72.90625 
L 32.078125 72.90625 
Q 44.34375 72.90625 50.609375 67.359375 
Q 56.890625 61.8125 56.890625 51.125 
Q 56.890625 40.328125 50.609375 34.8125 
Q 44.34375 29.296875 32.078125 29.296875 
L 19.671875 29.296875 
L 19.671875 0 
L 9.8125 0 
z
" id="DejaVuSans-80"/>
     <path d="M 9.421875 75.984375 
L 18.40625 75.984375 
L 18.40625 0 
L 9.421875 0 
z
" id="DejaVuSans-108"/>
     <path d="M 34.1875 63.1875 
L 20.796875 26.90625 
L 47.609375 26.90625 
z
M 28.609375 72.90625 
L 39.796875 72.90625 
L 67.578125 0 
L 57.328125 0 
L 50.6875 18.703125 
L 17.828125 18.703125 
L 11.1875 0 
L 0.78125 0 
z
" id="DejaVuSans-65"/>
     <path d="M 8.5 21.578125 
L 8.5 54.6875 
L 17.484375 54.6875 
L 17.484375 21.921875 
Q 17.484375 14.15625 20.5 10.265625 
Q 23.53125 6.390625 29.59375 6.390625 
Q 36.859375 6.390625 41.078125 11.03125 
Q 45.3125 15.671875 45.3125 23.6875 
L 45.3125 54.6875 
L 54.296875 54.6875 
L 54.296875 0 
L 45.3125 0 
L 45.3125 8.40625 
Q 42.046875 3.421875 37.71875 1 
Q 33.40625 -1.421875 27.6875 -1.421875 
Q 18.265625 -1.421875 13.375 4.4375 
Q 8.5 10.296875 8.5 21.578125 
z
M 31.109375 56 
z
" id="DejaVuSans-117"/>
     <path d="M 31 75.875 
Q 24.46875 64.65625 21.28125 53.65625 
Q 18.109375 42.671875 18.109375 31.390625 
Q 18.109375 20.125 21.3125 9.0625 
Q 24.515625 -2 31 -13.1875 
L 23.1875 -13.1875 
Q 15.875 -1.703125 12.234375 9.375 
Q 8.59375 20.453125 8.59375 31.390625 
Q 8.59375 42.28125 12.203125 53.3125 
Q 15.828125 64.359375 23.1875 75.875 
z
" id="DejaVuSans-40"/>
     <path d="M 2.984375 54.6875 
L 12.5 54.6875 
L 29.59375 8.796875 
L 46.6875 54.6875 
L 56.203125 54.6875 
L 35.6875 0 
L 23.484375 0 
z
" id="DejaVuSans-118"/>
     <path d="M 11.71875 12.40625 
L 22.015625 12.40625 
L 22.015625 0 
L 11.71875 0 
z
M 11.71875 51.703125 
L 22.015625 51.703125 
L 22.015625 39.3125 
L 11.71875 39.3125 
z
" id="DejaVuSans-58"/>
     <path d="M 10.6875 12.40625 
L 21 12.40625 
L 21 0 
L 10.6875 0 
z
" id="DejaVuSans-46"/>
     <path d="M 8.015625 75.875 
L 15.828125 75.875 
Q 23.140625 64.359375 26.78125 53.3125 
Q 30.421875 42.28125 30.421875 31.390625 
Q 30.421875 20.453125 26.78125 9.375 
Q 23.140625 -1.703125 15.828125 -13.1875 
L 8.015625 -13.1875 
Q 14.5 -2 17.703125 9.0625 
Q 20.90625 20.125 20.90625 31.390625 
Q 20.90625 42.671875 17.703125 53.65625 
Q 14.5 64.65625 8.015625 75.875 
z
" id="DejaVuSans-41"/>
    </defs>
    <use xlink:href="#DejaVuSans-67"/>
    <use x="69.824219" xlink:href="#DejaVuSans-97"/>
    <use x="131.103516" xlink:href="#DejaVuSans-114"/>
    <use x="172.216797" xlink:href="#DejaVuSans-116"/>
    <use x="211.425781" xlink:href="#DejaVuSans-80"/>
    <use x="268.103516" xlink:href="#DejaVuSans-111"/>
    <use x="329.285156" xlink:href="#DejaVuSans-108"/>
    <use x="357.068359" xlink:href="#DejaVuSans-101"/>
    <use x="418.591797" xlink:href="#DejaVuSans-32"/>
    <use x="450.378906" xlink:href="#DejaVuSans-65"/>
    <use x="518.787109" xlink:href="#DejaVuSans-50"/>
    <use x="582.410156" xlink:href="#DejaVuSans-67"/>
    <use x="652.234375" xlink:href="#DejaVuSans-32"/>
    <use x="684.021484" xlink:href="#DejaVuSans-82"/>
    <use x="749.003906" xlink:href="#DejaVuSans-101"/>
    <use x="810.527344" xlink:href="#DejaVuSans-115"/>
    <use x="862.626953" xlink:href="#DejaVuSans-117"/>
    <use x="926.005859" xlink:href="#DejaVuSans-108"/>
    <use x="953.789062" xlink:href="#DejaVuSans-116"/>
    <use x="992.998047" xlink:href="#DejaVuSans-32"/>
    <use x="1024.785156" xlink:href="#DejaVuSans-40"/>
    <use x="1063.798828" xlink:href="#DejaVuSans-69"/>
    <use x="1126.982422" xlink:href="#DejaVuSans-118"/>
    <use x="1186.162109" xlink:href="#DejaVuSans-97"/>
    <use x="1247.441406" xlink:href="#DejaVuSans-108"/>
    <use x="1275.224609" xlink:href="#DejaVuSans-117"/>
    <use x="1338.603516" xlink:href="#DejaVuSans-97"/>
    <use x="1399.882812" xlink:href="#DejaVuSans-116"/>
    <use x="1439.091797" xlink:href="#DejaVuSans-101"/>
    <use x="1500.615234" xlink:href="#DejaVuSans-32"/>
    <use x="1532.402344" xlink:href="#DejaVuSans-82"/>
    <use x="1597.384766" xlink:href="#DejaVuSans-101"/>
    <use x="1658.908203" xlink:href="#DejaVuSans-119"/>
    <use x="1740.695312" xlink:href="#DejaVuSans-97"/>
    <use x="1801.974609" xlink:href="#DejaVuSans-114"/>
    <use x="1841.337891" xlink:href="#DejaVuSans-100"/>
    <use x="1904.814453" xlink:href="#DejaVuSans-58"/>
    <use x="1938.505859" xlink:href="#DejaVuSans-32"/>
    <use x="1970.292969" xlink:href="#DejaVuSans-50"/>
    <use x="2033.916016" xlink:href="#DejaVuSans-48"/>
    <use x="2097.539062" xlink:href="#DejaVuSans-48"/>
    <use x="2161.162109" xlink:href="#DejaVuSans-46"/>
    <use x="2192.949219" xlink:href="#DejaVuSans-48"/>
    <use x="2256.572266" xlink:href="#DejaVuSans-41"/>
   </g>
  </g>
 </g>
 <defs>
  <clipPath id="pb9b6f01c83">
   <rect height="151.2" width="1339.2" x="216" y="51.84"/>
  </clipPath>
  <clipPath id="p529a9634b0">
   <rect height="151.2" width="1339.2" x="216" y="233.28"/>
  </clipPath>
 </defs>
</svg>
